<svg width="60" height="62" viewBox="0 0 60 62" fill="none" xmlns="http://www.w3.org/2000/svg">
<g id="Group 3728">
<path id="Vector" d="M20.2386 20.8126C20.0572 20.7737 19.9795 20.6442 19.9795 20.411C19.9795 20.0742 19.9924 19.841 19.9924 19.7891C20.0054 19.4782 20.2256 19.4393 20.4977 19.4393C20.8993 19.4393 32.6239 19.4523 33.9065 19.4523C34.6061 19.4523 35.3834 19.4782 36.07 19.6466C36.5235 19.7632 36.9121 19.9057 37.3526 20.0612C37.9486 20.2814 38.4927 20.6053 38.998 21.0069C39.7494 21.6029 40.3194 22.3284 40.7469 23.1834C41.0449 23.7794 41.2263 24.4272 41.3299 25.0749C41.3818 25.3859 41.3818 25.6968 41.4077 26.0077C41.4206 26.0984 41.4206 26.5777 41.3947 26.9794C41.3688 27.381 41.3558 28.0287 41.1226 28.7542C41.006 29.117 40.8765 29.4797 40.721 29.8295C40.5008 30.3218 40.2158 30.7753 39.8919 31.2158C39.4125 31.8506 38.8295 32.3688 38.1559 32.7963C37.3785 33.2886 36.5494 33.6643 35.6684 33.9234C34.9688 34.1307 34.2692 34.2603 33.5437 34.2991C33.0255 34.3251 32.4944 34.2862 31.9762 34.2732C31.7559 34.2603 31.5098 34.2344 31.3025 34.2085C31.0952 34.1825 30.849 34.04 30.7195 33.8327C30.577 33.5866 30.4733 33.3145 30.3438 33.0554C30.2401 32.8352 30.292 32.6797 30.3697 32.589C30.4604 32.4983 30.577 32.5113 30.6547 32.5113C31.1081 32.5502 31.5486 32.602 32.015 32.5502C32.4814 32.4983 32.9348 32.4206 33.3494 32.2004C33.9972 31.8506 34.5154 31.3583 34.8523 30.6975C35.0077 30.3996 35.1502 30.1016 35.2279 29.7907C35.3186 29.4409 35.3834 29.0911 35.4482 28.7413C35.5518 28.1324 35.5518 27.5235 35.5259 26.9146C35.4871 26.0595 35.3316 25.2304 35.0336 24.4142C34.7875 23.7664 34.4636 23.1575 33.9972 22.6393C33.4919 22.0563 32.8571 21.6547 32.1187 21.3956C31.4709 21.1754 30.8102 21.1365 30.1495 21.1624C30.0199 21.1624 29.8385 21.1883 29.7219 21.2272C29.3721 21.3308 29.2555 21.577 29.2296 21.8231C29.2037 22.0952 29.1648 39.2222 29.1908 39.6367C29.2167 40.0513 29.2167 40.4788 29.3333 40.8934C29.4628 41.3469 29.709 41.6707 30.1624 41.8392C30.7454 42.0594 31.1988 42.1501 31.8077 42.2278C32.1316 42.2667 32.4685 42.2796 32.7923 42.3185C33.0903 42.3574 33.1421 42.5387 33.1421 42.8367C33.1421 43.0311 33.1551 43.1477 33.1551 43.2902C33.168 43.6529 32.9996 43.7695 32.7276 43.7695C32.3907 43.7566 20.7568 43.7566 20.4329 43.7566C20.122 43.7566 20.0184 43.5622 19.9924 43.3679C19.9795 43.1736 19.9795 42.9663 19.9795 42.7201C19.9795 42.474 20.1609 42.3185 20.3811 42.2926C21.0289 42.2278 21.4175 42.2149 22.0394 42.0464C22.4928 41.9298 22.8815 41.7096 23.0758 41.2173C23.2183 40.8546 23.322 40.5695 23.322 39.8181C23.3349 38.8853 23.3349 24.2199 23.322 23.5073C23.309 23.0928 23.2961 22.6652 23.2054 22.2507C23.0499 21.4733 22.6224 21.1883 21.8839 21.0588C21.4564 20.981 21.1196 20.9163 20.692 20.8515C20.5366 20.8515 20.42 20.8515 20.2386 20.8126Z" fill="#0465B6"/>
<path id="Vector_2" d="M33.6217 7.61023V7.86934C33.531 7.86934 33.4533 7.88229 33.3756 7.88229C33.1424 7.88229 33.0517 7.94707 33.0128 8.16731C32.9351 8.53006 32.8703 8.89281 32.8055 9.25556C32.7926 9.33329 32.8055 9.42398 32.7926 9.51467C33.4015 9.63127 33.9845 9.74786 34.6063 9.8256C34.6581 9.55353 34.697 9.30738 34.7359 9.06123C34.7618 8.89281 34.7877 8.72439 34.8266 8.55597C34.8784 8.27095 34.8136 8.16731 34.5286 8.07662C34.3084 8.01185 34.3084 8.01185 34.3472 7.75274C34.4379 7.75274 35.3577 7.9082 35.7205 7.97298C36.0185 8.0248 36.3294 8.07662 36.6662 8.12845C36.6533 8.21913 36.6403 8.30982 36.6274 8.42642C36.5108 8.42642 36.4071 8.41346 36.3035 8.42642C36.1351 8.42642 36.0444 8.4912 36.0055 8.64666C35.9278 8.93168 35.8759 9.22965 35.8112 9.52762C35.7334 9.94219 35.6687 10.3568 35.6039 10.7843C35.5391 11.1859 35.4614 11.5875 35.4096 11.9891C35.3707 12.2353 35.4225 12.313 35.6557 12.4167C35.7464 12.4555 35.8371 12.4685 35.9148 12.5074C36.1739 12.6369 36.3942 12.5462 36.5755 12.3778C37.1585 11.8337 37.7415 11.2766 38.3245 10.7195C38.6613 10.3956 38.9852 10.0717 39.3091 9.73491C39.4128 9.63127 39.5164 9.51467 39.62 9.38512C39.8403 9.48876 40.0476 9.57945 40.2419 9.68309C40.3326 9.72196 40.3326 9.79969 40.3196 9.87742C40.2808 10.3049 40.2289 10.7195 40.1901 11.147C40.1512 11.4968 40.1253 11.8466 40.0864 12.2094C40.0346 12.7794 39.9958 13.3495 39.931 13.9195C39.9051 14.1916 40.0217 14.3988 40.229 14.5543C40.2549 14.5802 40.2937 14.5932 40.3196 14.6191C40.5528 14.7875 40.6176 14.7875 40.8119 14.5673C41.097 14.2304 41.382 13.8677 41.654 13.5308C41.952 13.1551 42.2629 12.7924 42.5609 12.4167C42.7034 12.2353 42.833 12.041 42.9625 11.8596C43.0273 11.7819 43.0144 11.7041 42.9496 11.6264C42.8589 11.5228 42.7682 11.4062 42.6905 11.3025C42.7164 11.1859 42.7553 11.0823 42.8848 11.0823C43.3901 11.4839 43.8824 11.8855 44.3876 12.2742C44.5431 12.4037 44.6985 12.5203 44.867 12.6499C45.139 12.8572 45.3722 13.0903 45.4888 13.4142C45.8127 14.3341 45.0613 15.1373 44.1415 14.9818C44.0508 14.9689 43.9471 14.9559 43.8435 14.93C43.8176 15.0337 43.7917 15.0984 43.7917 15.1762C43.7658 15.7203 43.7398 16.2515 43.7139 16.7956C43.7139 16.9381 43.7269 17.0676 43.7658 17.2102C43.7787 17.3008 43.8176 17.3915 43.8694 17.4693C44.0637 17.7543 44.2062 17.8579 44.5301 17.6247C45.152 17.1713 45.7609 16.7308 46.3828 16.2774C46.6289 16.096 46.8621 15.9146 47.0953 15.7332C47.3155 15.5648 47.3285 15.5 47.2248 15.2409C47.186 15.1503 47.1342 15.0596 47.0694 14.9559C47.1342 14.9041 47.2119 14.8393 47.3155 14.7616C47.4451 14.93 47.5487 15.0855 47.6653 15.2409C48.0151 15.7073 48.3649 16.1608 48.7147 16.6272C49.0256 17.0417 49.3366 17.4563 49.4402 17.9745C49.5827 18.7 49.3884 19.3348 48.8961 19.879C48.5592 20.2547 48.1317 20.5138 47.6524 20.6433C47.1082 20.7858 46.59 20.747 46.0718 20.5138C45.5147 20.2676 45.1131 19.8401 44.7633 19.3607C44.4265 18.9073 44.1026 18.428 43.7658 17.9745C43.688 17.8709 43.6103 17.7802 43.5067 17.7025C43.2346 17.4693 42.9625 17.249 42.7682 16.951C42.6646 16.7826 42.6127 16.6013 42.6127 16.4069C42.6127 15.9017 42.6646 15.4094 42.7553 14.9171C42.7682 14.8523 42.7552 14.7745 42.7682 14.7098C42.8071 14.5284 42.7293 14.4118 42.522 14.3082C42.5091 14.3341 42.4832 14.3859 42.4573 14.4247C42.237 14.7098 42.0297 14.9818 41.8095 15.2668C41.7965 15.2928 41.7577 15.3057 41.7447 15.3316C41.6281 15.5778 41.5633 15.526 41.7577 15.798L41.8354 15.9146C41.9909 16.096 41.9909 16.1089 41.7706 16.2774C41.6281 16.1608 41.4856 16.0312 41.3302 15.9146C40.8767 15.5519 40.4233 15.1632 39.9439 14.8264C39.6589 14.6191 39.3091 14.5025 38.9982 14.347C38.7261 14.2175 38.4541 14.1009 38.182 13.9843C38.169 13.7381 38.2079 13.6993 38.4282 13.7252C38.48 13.7381 38.5318 13.7381 38.5836 13.7381C38.7132 13.7381 38.765 13.6993 38.7909 13.5697C38.8298 13.2976 38.8686 13.0126 38.8816 12.7406C38.8946 12.5074 38.8816 12.4944 38.6743 12.4167C38.4282 12.313 38.182 12.1964 37.9358 12.0669C37.7674 11.9762 37.6508 12.0151 37.5213 12.1446C37.3788 12.3001 37.2233 12.4555 37.0808 12.624C36.8994 12.8312 36.9253 12.9219 37.1456 13.0903C37.2233 13.1551 37.301 13.2199 37.3917 13.2976C37.3399 13.3883 37.2881 13.4661 37.2363 13.5567C37.1067 13.492 36.9901 13.4272 36.8735 13.3754C36.4719 13.181 36.0703 12.9867 35.6557 12.8183C35.4225 12.7276 35.1634 12.6887 34.9173 12.6369C34.5286 12.5721 34.1399 12.5203 33.7513 12.4555C33.6865 12.4426 33.6347 12.4426 33.5569 12.4426V12.1317H33.842C34.0752 12.1317 34.1658 12.0798 34.2177 11.8466C34.2695 11.6264 34.3084 11.3932 34.3602 11.16C34.399 10.9138 34.4379 10.6547 34.4768 10.4086C34.3213 10.3179 32.961 10.0717 32.6242 10.0847C32.5464 10.577 32.4687 11.0564 32.4039 11.5616C32.378 11.7559 32.4169 11.7948 32.5982 11.8725C32.7148 11.9244 32.8185 11.9762 32.961 12.028C32.9221 12.1187 32.8962 12.1964 32.8703 12.2871C32.08 12.1446 31.3027 12.0151 30.5254 11.8855V11.5875C30.6549 11.5875 30.7586 11.5875 30.8752 11.6005C31.0306 11.6005 31.1343 11.5357 31.1732 11.3932C31.225 11.2377 31.2768 11.0693 31.3157 10.9009C31.4711 10.0329 31.6136 9.16487 31.7691 8.30982C31.7821 8.20618 31.808 8.10253 31.8209 7.98594C31.8468 7.81752 31.7561 7.68796 31.6007 7.62319C31.5489 7.59728 31.497 7.58432 31.4452 7.55841C31.3934 7.54545 31.3416 7.51954 31.2768 7.49363C31.2897 7.40294 31.3157 7.31226 31.3286 7.22157C32.1059 7.35112 32.8444 7.48068 33.6217 7.61023ZM46.1884 19.866C46.4087 19.8271 46.6548 19.8142 46.8621 19.7235C47.458 19.4644 48.0022 19.1016 48.3649 18.5316C48.7924 17.8579 48.7277 17.2231 48.2742 16.6142C48.1317 16.4328 48.0929 16.4328 47.8985 16.5753C47.2248 17.0676 46.5382 17.5729 45.8645 18.0652C45.6443 18.2207 45.437 18.3891 45.2297 18.5705C45.0872 18.7 45.0483 18.8555 45.1131 19.0498C45.2686 19.4903 45.5925 19.866 46.1884 19.866ZM44.0378 12.4814C43.986 12.5203 43.9212 12.5592 43.8694 12.611C43.5455 13.0126 43.2216 13.4013 42.8848 13.8029C42.82 13.8806 42.8071 13.9584 42.9107 14.0231C43.0791 14.1268 43.2476 14.2434 43.416 14.347C43.5585 14.4377 43.701 14.4247 43.8305 14.36C44.1933 14.1916 44.4006 13.8806 44.5172 13.5049C44.5431 13.4142 44.5431 13.3106 44.5431 13.2199C44.5301 12.8831 44.3617 12.6499 44.0378 12.4814ZM39.1018 10.5381C38.752 10.8491 38.4541 11.2118 38.1043 11.5487C38.4022 11.6912 38.6613 11.8596 38.9723 11.9373C39.0371 11.458 39.1148 11.0045 39.1018 10.5381Z" fill="#0465B6"/>
<path id="Vector_3" d="M15.8103 15.4489C16.1083 15.7857 16.4063 16.1226 16.7172 16.4465C16.8986 16.6408 16.9633 16.6408 17.1836 16.4983C17.2095 16.4853 17.2354 16.4594 17.2613 16.4465C17.4556 16.3299 17.5075 16.3428 17.6241 16.589C17.4816 16.7185 17.3261 16.8351 17.1706 16.9647C16.8467 17.2367 16.5358 17.5217 16.2119 17.7938C16.1212 17.8715 16.0176 17.9493 15.914 18.027C15.7714 18.1436 15.7455 18.1307 15.6419 17.9752C15.6289 17.9622 15.6289 17.9363 15.616 17.8975C15.6678 17.8327 15.7196 17.7549 15.7844 17.6902C15.9399 17.5088 15.9528 17.444 15.8103 17.2626L15.3439 16.6797C15.0071 16.2651 14.6702 15.8635 14.3205 15.4618C14.1391 15.2546 13.9577 15.0602 13.7634 14.8529C13.6727 14.7493 13.569 14.6457 13.4784 14.555C13.3877 14.4643 13.297 14.4772 13.2063 14.5291C13.0897 14.5938 12.9731 14.6586 12.8435 14.7234C12.8047 14.6716 12.7528 14.6327 12.7269 14.5809C12.6881 14.5161 12.701 14.4513 12.7658 14.3995C13.0767 14.1534 14.165 13.2206 14.4111 13.0133C14.6702 12.793 14.9164 12.5469 15.2532 12.4303C15.5771 12.3137 15.914 12.2748 16.2249 12.4303C16.769 12.7153 17.054 13.3113 16.8338 13.9202C16.7949 14.0238 16.7561 14.1404 16.7172 14.27C16.8467 14.3218 16.9633 14.3866 17.0799 14.4125C17.65 14.542 18.22 14.6845 18.7901 14.8011C19.1139 14.8659 19.386 14.6975 19.6322 14.5161C19.7358 14.4384 19.6969 14.3218 19.6451 14.2181C19.5415 14.0108 19.4378 13.8165 19.3342 13.6092C18.9844 12.9744 18.6216 12.3396 18.2718 11.7048C18.1552 11.5105 18.0257 11.3161 17.9091 11.1218C17.8443 11.0182 17.7407 10.9793 17.6241 11.0182L17.2354 11.1477C17.1836 11.0829 17.1188 11.0182 17.0411 10.9145C17.1447 10.8497 17.2225 10.8109 17.3002 10.7591C17.8573 10.4481 18.4014 10.1372 18.9585 9.82626C18.9973 9.81331 19.0232 9.7874 19.0621 9.77444C19.1398 9.73558 19.2176 9.73558 19.2694 9.81331C19.3342 9.904 19.3212 9.99468 19.2435 10.0595C19.2046 10.0854 19.1658 10.0983 19.1269 10.1372C18.9455 10.2927 18.9066 10.3833 19.0232 10.6036C19.1528 10.8627 19.2953 11.1088 19.4378 11.368C19.7358 11.8991 20.0208 12.4173 20.3188 12.9485C20.4354 13.1687 20.5649 13.376 20.7074 13.5963C20.8111 13.7517 20.9147 13.7906 21.0831 13.7388C21.1997 13.6999 21.3163 13.6611 21.4589 13.6092C21.4848 13.6481 21.5236 13.687 21.5495 13.7388C21.6014 13.8424 21.5755 13.9072 21.4589 13.972C20.8629 14.3088 20.254 14.6327 19.6581 14.9695C19.4637 15.0861 19.2953 15.2416 19.1139 15.3841C19.0492 15.4359 18.9714 15.4748 18.9066 15.5396C18.505 15.8635 18.0516 15.8764 17.5982 15.7339C17.1706 15.6044 16.7561 15.4618 16.3285 15.3193C16.0694 15.2157 15.9917 15.2416 15.8103 15.4489ZM15.5382 15.125C15.7196 14.9436 15.8751 14.7882 16.0176 14.6327C16.186 14.4384 16.2119 14.2181 16.0953 13.9979C15.9787 13.7647 15.8233 13.5574 15.603 13.4149C15.1885 13.1428 14.8775 13.1299 14.437 13.4667C14.3075 13.5574 14.3075 13.674 14.3982 13.7906C14.6702 14.1145 14.9423 14.4384 15.2144 14.7493C15.318 14.8659 15.4087 14.9695 15.5382 15.125Z" fill="#0465B6"/>
<path id="Vector_4" d="M12.7622 18.3124C12.8269 18.2346 12.8787 18.1699 12.9306 18.0921C13.086 17.8719 13.1249 17.6257 12.9694 17.3925C12.7233 16.9909 12.3346 16.7318 11.8812 16.6411C11.5055 16.5634 11.1557 16.6929 10.9095 17.1593C10.9614 17.2112 11.0002 17.2889 11.065 17.3407C11.8164 17.9107 12.5549 18.4808 13.3063 19.0379L13.7727 19.3877C14.0059 19.5431 14.1225 19.5302 14.3297 19.3488C14.4204 19.2711 14.5111 19.1933 14.6148 19.0897C14.6666 19.1285 14.7443 19.1933 14.835 19.2451C14.3168 19.9318 13.8115 20.6055 13.2933 21.2921C13.2415 21.2791 13.1897 21.2662 13.1508 21.2403C13.0731 21.1885 13.0342 21.1107 13.099 21.02C13.1379 20.9553 13.1767 20.8905 13.2156 20.8127C13.3063 20.6443 13.2804 20.5407 13.1378 20.4241C12.801 20.152 12.4642 19.8929 12.1273 19.6338C11.6869 19.297 11.2334 18.9731 10.7929 18.6362C10.6504 18.5326 10.495 18.429 10.3524 18.3253C10.2229 18.2346 10.1063 18.2346 9.9897 18.3253C9.88606 18.403 9.78242 18.4937 9.66582 18.5844C9.60104 18.5326 9.5233 18.4937 9.43262 18.429C9.5233 18.2994 9.61399 18.1828 9.69172 18.0792C10.0027 17.6646 10.3265 17.25 10.6375 16.8354C10.8577 16.5504 11.0779 16.2654 11.3111 15.9934C11.7516 15.4881 12.5419 15.4492 13.099 15.8638C13.5006 16.1618 13.7209 16.5504 13.7338 17.0427C13.7468 17.4573 13.5783 17.833 13.3451 18.1699C13.2933 18.2346 13.2544 18.2994 13.2026 18.3512C13.0731 18.5326 12.9306 18.5196 12.7622 18.3124Z" fill="#0465B6"/>
<path id="Vector_5" d="M30.0739 10.5891C30.1646 10.6409 30.2423 10.6798 30.3071 10.7187C30.3071 10.7316 30.3201 10.7446 30.3201 10.7575C30.2553 11.1332 30.1257 11.483 29.9185 11.8069C29.8666 11.8846 29.776 11.9365 29.6853 11.9753C29.3484 12.1308 28.9986 12.1826 28.6359 12.2215C28.1047 12.2733 27.5865 12.2474 27.0813 12.066C26.3169 11.781 25.8634 11.211 25.7209 10.4207C25.6821 10.1875 25.6432 10.0709 25.6302 9.82473C25.6173 9.65631 25.6173 9.41016 25.6691 9.20288C25.7598 8.84013 25.8894 8.50329 26.1355 8.21827C26.4594 7.84257 26.848 7.58346 27.3144 7.44095C27.7549 7.29844 28.2084 7.22071 28.6748 7.23366C29.0505 7.24662 29.4132 7.22071 29.8019 7.20775C29.8148 7.28548 29.8278 7.35026 29.8278 7.40208C29.8278 7.63528 29.8148 7.86847 29.8148 8.10167C29.8148 8.20531 29.8278 8.54215 29.8148 8.59398H29.5298C29.4521 8.39964 29.3873 8.21827 29.3096 8.04985C29.2318 7.88143 28.9986 7.71301 28.8432 7.66119C28.61 7.58346 28.1954 7.59641 27.8845 7.66119C27.431 7.76483 27.159 8.08872 27.0165 8.51624C26.861 9.00855 26.8869 9.51381 26.9647 10.0061C27.0165 10.3689 27.1331 10.7057 27.3404 11.0166C27.6513 11.496 28.0788 11.7551 28.6748 11.7551C29.1152 11.7551 29.4521 11.6126 29.6982 11.2498C29.7889 11.1203 29.8537 10.9907 29.9314 10.8482C29.9703 10.7705 30.0092 10.6927 30.0739 10.5891Z" fill="#0465B6"/>
<path id="Vector_6" d="M22.6485 13.5292C22.6226 13.4126 22.5967 13.3348 22.5708 13.2312C22.6874 13.1664 22.791 13.1146 22.9076 13.0498C23.1926 12.9073 23.2444 12.7648 23.1538 12.4668C22.9206 11.7543 22.6874 11.0417 22.4542 10.3421C22.3505 10.0183 22.2339 9.68141 22.1173 9.35753C22.1044 9.30571 22.0655 9.25389 22.0266 9.18911C21.8064 9.26684 21.5991 9.34457 21.3789 9.40935C21.1457 9.48708 21.0939 9.66846 21.0679 9.87574C21.042 10.083 21.0291 10.2903 21.0032 10.5235C20.9384 10.5365 20.8736 10.5624 20.8088 10.5753C20.7311 10.5883 20.6793 10.5494 20.6663 10.4587C20.5886 10.0442 20.4979 9.62959 20.4072 9.20206C21.8453 8.82636 23.2444 8.3211 24.6436 7.78993C24.7343 8.26928 24.825 8.72272 24.9286 9.18911C24.825 9.21502 24.7343 9.24093 24.6436 9.2798C24.54 9.12433 24.4493 8.96887 24.3586 8.82636C24.1902 8.5543 24.0736 8.51543 23.7756 8.60612C23.5813 8.6709 23.374 8.73567 23.1667 8.80045C23.1667 8.85227 23.1667 8.91705 23.1797 8.95591C23.3222 9.38344 23.4647 9.79801 23.6201 10.2255C23.8404 10.8604 24.0606 11.4952 24.2679 12.13C24.2809 12.1559 24.2938 12.1818 24.3068 12.2207C24.3716 12.3761 24.4752 12.4798 24.6566 12.4539C24.7991 12.4279 24.9416 12.415 25.11 12.3891C25.123 12.4798 25.1489 12.5575 25.1748 12.6611C24.9027 12.7907 24.6177 12.8296 24.3456 12.9203C24.0606 13.0239 23.7756 13.1146 23.4906 13.2182C23.2315 13.3089 22.9594 13.4126 22.6485 13.5292Z" fill="#0465B6"/>
<path id="Vector_7" d="M9.42119 29.3369C9.42119 29.4405 9.40824 29.5701 9.40824 29.6867C9.39528 29.8162 9.38231 29.9458 9.38231 30.0883C9.38231 30.3085 9.34346 30.3474 9.08435 30.3344C9.05844 30.2178 9.03252 30.0883 8.99365 29.9717C8.94183 29.7903 8.82524 29.6996 8.63091 29.6996H7.97019C7.89246 29.6996 7.80177 29.7126 7.80177 29.8162V31.034H8.61796C8.76047 31.034 8.79933 30.9304 8.8382 30.8267C8.90297 30.5935 8.90298 30.5936 9.14913 30.6065C9.23982 30.8138 9.0973 31.0081 9.12321 31.2154C9.14912 31.4227 9.12321 31.63 9.12321 31.8761C9.03252 31.8761 8.94183 31.8891 8.8641 31.8891C8.85115 31.8373 8.85115 31.7984 8.8382 31.7595C8.77342 31.5263 8.68273 31.4486 8.43658 31.4486H7.81472C7.81472 31.5522 7.80177 31.617 7.80177 31.6818V32.5239C7.80177 32.7053 7.84063 32.77 8.00905 32.783C8.30702 32.8089 8.61795 32.8219 8.92888 32.8089C9.08434 32.796 9.188 32.6664 9.26573 32.5369C9.36937 32.3814 9.4471 32.213 9.53779 32.0575C9.7969 32.1223 9.80985 32.1223 9.74507 32.3555C9.66734 32.6275 9.57665 32.8996 9.49892 33.1717C9.11026 33.1846 7.93131 33.1976 7.56856 33.1976H6.20825V32.9773C6.35076 32.9514 6.49328 32.9255 6.62283 32.8996C6.7783 32.8607 6.81716 32.8219 6.83012 32.6664C6.84307 32.3037 6.86899 31.928 6.86899 31.5652C6.88194 31.1765 6.86899 30.8008 6.86899 30.4122C6.86899 30.2308 6.84307 30.0365 6.83012 29.8551C6.81716 29.7385 6.72647 29.6996 6.64874 29.6737C6.55805 29.6349 6.46737 29.6219 6.36373 29.6089C6.36373 29.5442 6.35077 29.4923 6.35077 29.4276C6.37668 29.4146 6.40259 29.4017 6.41555 29.4017H7.9961C8.47545 29.3498 8.94184 29.3498 9.42119 29.3369Z" fill="#0465B6"/>
<path id="Vector_8" d="M45.477 33.4682C45.451 33.3645 45.4251 33.2868 45.3992 33.2091C46.0858 32.8593 46.6689 32.4317 46.902 31.6544C46.7984 31.6933 46.7077 31.7192 46.6041 31.771C46.2284 31.9394 45.8786 31.9265 45.5417 31.6803C45.3733 31.5637 45.2826 31.3823 45.2179 31.201C44.9328 30.4236 45.2956 29.5816 46.1506 29.3095C46.5782 29.1799 46.9927 29.1929 47.3684 29.4131C47.6275 29.5686 47.8348 29.7888 47.9255 30.0868C48.1846 30.8512 48.0551 31.5637 47.5757 32.2115C47.1741 32.7556 46.617 33.0925 45.9822 33.3127C45.8397 33.3775 45.6713 33.4163 45.477 33.4682ZM46.0081 30.2682C46.0081 30.3589 45.9952 30.4107 46.0081 30.4755C46.0729 30.8771 46.1636 31.201 46.63 31.3305C46.8373 31.3953 47.0446 31.2787 47.0964 31.0714C47.1612 30.7864 47.1352 30.5143 47.0705 30.2423C47.0316 30.0609 46.9409 29.8795 46.8373 29.7111C46.6818 29.465 46.2543 29.452 46.1118 29.7629C46.034 29.9313 45.9952 30.1127 46.0081 30.2682Z" fill="#0465B6"/>
<path id="Vector_9" d="M12.6856 29.3481C12.6467 29.685 12.6079 29.983 12.569 30.2809C12.3358 30.3198 12.3358 30.3198 12.284 30.1255C12.2322 29.9311 12.1803 29.7368 11.973 29.6202C11.7658 29.5036 11.5455 29.4647 11.3253 29.5813C11.0532 29.7239 10.9755 30.0866 11.1569 30.3457C11.2994 30.54 11.5196 30.6437 11.701 30.7732C11.9601 30.9546 12.2451 31.1101 12.4913 31.3174C12.9706 31.719 12.9058 32.5999 12.3617 32.9756C11.9601 33.2477 11.5196 33.3384 11.0403 33.2736C10.82 33.2348 10.5998 33.17 10.3795 33.1311C10.2889 33.1052 10.237 33.0534 10.2241 32.9756C10.1723 32.6906 10.1204 32.3927 10.0557 32.0947C10.1464 32.0429 10.2241 32.004 10.3148 31.9651C10.3666 32.0947 10.4055 32.1983 10.4443 32.302C10.5998 32.6259 10.7941 32.8979 11.1698 32.9756C11.2994 33.0016 11.4548 33.0145 11.5844 32.9756C11.9212 32.8979 12.0119 32.4963 11.8176 32.2242C11.7269 32.0817 11.5844 31.9781 11.4419 31.8744C11.1569 31.6542 10.8459 31.4858 10.5739 31.2526C10.1075 30.851 10.1463 30.0736 10.4573 29.7109C10.6775 29.4647 10.9625 29.3352 11.2864 29.2834C11.7787 29.1797 12.2192 29.3093 12.6856 29.3481Z" fill="#0465B6"/>
<path id="Vector_10" d="M16.6226 30.4618H16.3764C16.3375 30.3193 16.3116 30.1898 16.2857 30.0473C16.2209 29.7752 16.1302 29.6975 15.8452 29.6975H15.3659C15.3659 29.8011 15.3529 29.8918 15.3529 29.9695V32.3663C15.3529 32.7808 15.4177 32.8456 15.8193 32.9234C15.8582 32.9363 15.8971 32.9363 15.9618 32.9363C15.9359 33.014 15.923 33.0788 15.91 33.1565H13.8112C13.8112 33.0918 13.7983 33.014 13.7983 32.9622C13.8242 32.9493 13.8371 32.9363 13.8501 32.9234C14.3294 32.8715 14.3424 32.8586 14.4072 32.3922C14.4201 32.3274 14.4331 32.2497 14.4331 32.1849V29.9048C14.4331 29.84 14.4201 29.7752 14.4201 29.6845C14.2129 29.6845 14.0185 29.6716 13.8371 29.6845C13.7076 29.6975 13.591 29.7752 13.5392 29.9177C13.4615 30.0991 13.3708 30.2675 13.2801 30.4618C13.1894 30.4359 13.1117 30.41 13.0469 30.3841C13.0987 29.9954 13.1376 29.6068 13.1894 29.244C13.578 29.2699 14.3424 29.2959 14.8995 29.3088C15.34 29.3218 15.612 29.3088 16.0655 29.3088C16.2469 29.3088 16.5837 29.3088 16.791 29.2959C16.7132 29.7104 16.6744 30.0602 16.6226 30.4618Z" fill="#0465B6"/>
<path id="Vector_11" d="M50.9951 32.5363C51.0858 32.4844 51.1506 32.4585 51.2154 32.4197C51.2672 32.4974 51.319 32.5881 51.3708 32.6529C51.617 32.9767 51.9408 33.0933 52.3295 33.0674C52.5498 33.0545 52.6664 32.899 52.757 32.7435C52.9902 32.316 52.77 31.7201 52.3036 31.5646C52.1222 31.4998 51.9279 31.4869 51.7336 31.448C51.7465 31.1889 51.7854 31.1371 52.0315 31.0593C52.1481 31.0205 52.2647 30.9816 52.3813 30.9168C52.5368 30.8391 52.6145 30.6836 52.6145 30.5152C52.6275 30.0488 52.2259 29.7897 51.8372 29.8934C51.7336 29.9193 51.6299 29.9711 51.5392 30.01C51.4485 30.0618 51.3579 30.1266 51.2672 30.1913C51.1117 30.0359 51.0988 30.01 51.2154 29.8804C51.5004 29.5565 51.8243 29.3104 52.2647 29.2326C52.6404 29.1679 53.2493 29.3622 53.3919 29.8675C53.4955 30.2432 53.4178 30.5411 53.0939 30.7614C53.0421 30.8002 52.9773 30.8391 52.9255 30.8909C52.9125 30.9039 52.9125 30.9168 52.8866 30.9557C52.9902 31.0075 53.1068 31.0593 53.2105 31.1241C53.4566 31.2796 53.6639 31.461 53.7287 31.7589C53.8064 32.1606 53.7028 32.4974 53.4307 32.7954C53.0421 33.2358 52.5368 33.3784 51.9797 33.4043C51.8243 33.4172 51.6688 33.3784 51.5133 33.3395C51.2931 33.3006 51.1506 33.1711 51.0858 32.9508C51.0599 32.8213 51.034 32.6788 50.9951 32.5363Z" fill="#0465B6"/>
<path id="Vector_12" d="M42.51 33.1197C42.497 32.9124 42.51 32.8865 42.6525 32.8606C42.6913 32.8476 42.7302 32.8606 42.7691 32.8476C42.9764 32.8346 43.0411 32.7828 43.067 32.5626C43.08 32.3683 43.1059 32.1739 43.1059 31.9796V30.3083C43.1059 30.2306 43.093 30.1529 43.08 30.0752C43.0541 29.9456 42.9893 29.842 42.8209 29.8549C42.7561 29.8549 42.6913 29.829 42.5877 29.8031C42.6007 29.7254 42.6136 29.6476 42.6266 29.5569C43.0671 29.5181 43.4687 29.4144 43.8573 29.259C43.9998 29.1942 44.0646 29.246 44.0776 29.3885C44.0905 29.5181 44.0776 29.6347 44.0776 29.7642C44.0646 30.0881 44.0387 30.399 44.0387 30.7229C44.0387 31.3189 44.0646 31.9148 44.0776 32.5108C44.0905 32.744 44.1683 32.8217 44.4015 32.8606C44.4274 32.8606 44.4533 32.8606 44.4662 32.8735C44.531 32.8994 44.6346 32.8994 44.6217 33.016C44.6087 33.1197 44.544 33.1585 44.4403 33.1456H42.6784C42.6266 33.1326 42.5748 33.1326 42.51 33.1197Z" fill="#0465B6"/>
<path id="Vector_13" d="M50.5814 33.1194H48.4827C48.4827 33.0416 48.4827 32.9898 48.4697 32.9121C48.5604 32.8991 48.6381 32.8732 48.7159 32.8603C48.9491 32.8343 49.0527 32.7437 49.0657 32.5105V30.2174C49.0657 29.9323 49.0527 29.9194 48.7547 29.8546C48.7029 29.8417 48.6511 29.8157 48.5863 29.8028V29.5566C49.0527 29.5178 49.4802 29.3882 49.9078 29.2457C49.9466 29.2328 49.9985 29.2587 50.0244 29.2587V32.2643C50.0244 32.3679 50.0373 32.4716 50.0632 32.5623C50.115 32.7955 50.1539 32.8343 50.3871 32.8603C50.5944 32.8732 50.6074 32.8862 50.5814 33.1194Z" fill="#0465B6"/>
<path id="Vector_14" d="M16.6252 32.7305C16.6252 32.4196 16.8196 32.2123 17.1175 32.2123C17.4544 32.1994 17.6098 32.4326 17.6098 32.7305C17.6098 33.0544 17.4155 33.2488 17.0916 33.2747C16.8584 33.2747 16.5604 33.0285 16.6252 32.7305Z" fill="#0465B6"/>
<path id="Vector_15" d="M32.7278 1.13253C33.5311 1.21027 34.3343 1.33982 35.1375 1.45642C36.3424 1.65075 37.5343 1.92281 38.7003 2.28556C39.8015 2.60944 40.8897 3.01106 41.9391 3.47745C42.7164 3.8402 43.5067 4.20295 44.2711 4.60457C45.2038 5.10983 46.1107 5.66691 46.9917 6.27581C47.8597 6.87176 48.6888 7.51953 49.4921 8.19321C50.3083 8.89279 51.0726 9.64421 51.8111 10.4215C52.5495 11.1859 53.2362 12.0021 53.871 12.8571C54.4281 13.5697 54.9463 14.3211 55.4127 15.0984C55.905 15.9276 56.3714 16.7567 56.8248 17.5988C57.343 18.6223 57.7965 19.6717 58.1851 20.7599C58.6256 21.9777 58.9883 23.2214 59.2604 24.4781C59.4547 25.3461 59.5972 26.24 59.7138 27.121C59.8045 27.7558 59.8693 28.4036 59.9082 29.0384C59.947 29.8805 59.96 30.7096 59.96 31.5517C59.96 32.044 59.947 32.5234 59.9082 33.0157C59.8693 33.5728 59.7916 34.1298 59.7268 34.6999C59.662 35.231 59.5972 35.7493 59.5066 36.2804C59.3122 37.3557 59.0661 38.4181 58.7681 39.4674C58.4831 40.4391 58.1592 41.3848 57.7835 42.3176C57.4467 43.1597 57.071 43.9889 56.6434 44.7791C56.2807 45.4528 55.9179 46.1395 55.5034 46.8002C54.8556 47.8625 54.1301 48.873 53.3398 49.8317C52.9641 50.2852 52.6014 50.7516 52.1868 51.1661C51.5649 51.788 50.969 52.4487 50.3342 53.0447C49.6735 53.6924 48.9609 54.2884 48.2095 54.8325C47.6783 55.2212 47.1601 55.6228 46.616 55.9985C46.318 56.2058 46.0071 56.3871 45.6962 56.5815C45.2298 56.8665 44.7634 57.1515 44.2711 57.4106C43.6492 57.7345 43.0144 58.0454 42.3796 58.3434C41.8743 58.5766 41.3561 58.7839 40.8508 58.9912C40.6047 59.0948 40.3586 59.1855 40.0994 59.2762C39.6719 59.4187 39.2444 59.5742 38.8169 59.6908C38.2209 59.8592 37.625 60.0146 37.029 60.1701C36.731 60.2478 36.446 60.3126 36.1481 60.3774C35.4873 60.5329 34.8266 60.6365 34.1529 60.7142C33.8679 60.7401 33.5699 60.8179 33.2849 60.8567C33.1294 60.8827 32.961 60.8956 32.7926 60.8956C32.1708 60.9345 31.5619 60.9604 30.94 60.9863C30.5384 60.9992 30.1368 61.0252 29.7352 61.0122C29.0615 60.9993 28.3748 60.9733 27.7012 60.9345C27.1182 60.8956 26.5481 60.8308 25.9781 60.7531C25.2526 60.6495 24.5271 60.5199 23.8145 60.3774C22.9854 60.196 22.1563 59.9887 21.3401 59.7685C20.7571 59.613 20.2 59.3928 19.63 59.1855C19.0599 58.9782 18.4899 58.758 17.9328 58.5118C17.4276 58.3045 16.9353 58.0584 16.4559 57.7993C15.7175 57.4106 14.979 57.022 14.2665 56.5815C13.5539 56.141 12.8802 55.6616 12.2065 55.1693C11.7272 54.8195 11.2479 54.4438 10.7815 54.0681C10.4446 53.7961 10.1207 53.4981 9.80981 53.2001C9.22682 52.643 8.63087 52.086 8.06083 51.503C7.68513 51.1143 7.33534 50.6997 6.9985 50.2852C6.48029 49.6504 5.96207 48.9896 5.46976 48.316C5.06815 47.7718 4.69244 47.2018 4.35561 46.6188C3.87626 45.8026 3.40986 44.9735 2.99529 44.1184C2.38639 42.8747 1.86817 41.6051 1.4536 40.2836C1.18154 39.4286 0.935387 38.5735 0.741057 37.7055C0.598548 37.0318 0.468991 36.3711 0.365349 35.6974C0.24875 34.9719 0.158069 34.2335 0.080337 33.508C0.0414709 33.1323 0.0414646 32.7436 0.0414646 32.355C0.0285092 31.6165 -0.0103474 30.8651 0.00260797 30.1266C0.0155633 29.5436 0.0803275 28.9606 0.119194 28.3777C0.145104 28.0279 0.171024 27.6651 0.209891 27.3153C0.274667 26.8489 0.352396 26.3955 0.417173 25.9291C0.585593 24.8149 0.831738 23.7137 1.15562 22.6255C1.49246 21.4465 1.90705 20.2935 2.39935 19.1664C2.65846 18.6093 2.89165 18.0393 3.17667 17.4822C3.65602 16.5365 4.18718 15.6166 4.75722 14.7227C5.41794 13.6992 6.14344 12.7146 6.92076 11.7818C7.73694 10.7843 8.61791 9.85149 9.56365 8.97053C11.792 6.88471 14.3442 5.16165 17.1037 3.86611C18.2697 3.30903 19.4615 2.82968 20.6923 2.44102C21.8972 2.05236 23.1279 1.74144 24.3716 1.50824C25.2396 1.33982 26.1076 1.21027 26.9757 1.13253C27.753 1.08071 28.5433 1.02889 29.3206 0.990024C29.5538 0.977069 29.774 0.990024 30.0072 0.990024C30.0202 1.01593 31.821 1.0548 32.7278 1.13253ZM57.4596 29.8287H57.4855C57.4467 29.2845 57.4078 28.7404 57.3689 28.1833C57.343 27.9113 57.3301 27.6262 57.2782 27.3542C57.1876 26.7582 57.0839 26.1623 56.9544 25.5663C56.8119 24.8797 56.6823 24.1801 56.488 23.5064C56.2677 22.7162 55.9957 21.9388 55.7236 21.1745C55.4775 20.5008 55.1924 19.8401 54.8945 19.1793C54.6353 18.6223 54.3503 18.0911 54.0653 17.547C53.7803 17.0028 53.4564 16.4458 53.1066 15.9405C52.5884 15.1761 52.0313 14.4377 51.4872 13.6992C50.9301 12.9867 50.3342 12.3001 49.6994 11.6652C49.0386 10.9916 48.352 10.3567 47.6265 9.7608C46.9528 9.20372 46.2662 8.67255 45.5536 8.18025C44.7115 7.5843 43.8176 7.05313 42.8978 6.58674C42.1464 6.19808 41.382 5.84828 40.6047 5.51144C39.7237 5.12278 38.8298 4.7989 37.91 4.53979C36.8995 4.22886 35.863 3.98271 34.8137 3.81429C34.2177 3.72361 33.6217 3.64587 33.0258 3.56814C32.6631 3.52928 32.3003 3.50336 31.9376 3.47745C31.5359 3.45154 31.1214 3.39972 30.7198 3.38677C29.9813 3.38677 29.2299 3.39972 28.4914 3.42563C28.1287 3.43859 27.7659 3.47745 27.4032 3.51632C26.9368 3.56814 26.4704 3.60701 26.004 3.67178C25.3821 3.76247 24.7732 3.89203 24.1514 4.00862C23.685 4.09931 23.2186 4.20295 22.7522 4.34546C21.9231 4.59161 21.0939 4.86368 20.2648 5.16165C19.5781 5.42076 18.8915 5.70578 18.2178 6.0167C17.6737 6.26286 17.1425 6.54787 16.6243 6.84585C16.0543 7.16973 15.4972 7.50657 14.9531 7.85637C14.4867 8.15434 14.0462 8.46527 13.6057 8.78915C13.23 9.06121 12.8802 9.35919 12.5175 9.64421C12.1288 9.96809 11.7402 10.279 11.3645 10.6288C11.0017 10.9786 10.626 11.3414 10.2762 11.7171C9.90049 12.1057 9.52479 12.5203 9.16204 12.9219C8.54018 13.6215 7.95719 14.3729 7.42602 15.1373C6.75234 16.096 6.13049 17.0935 5.59932 18.1429C5.1977 18.9202 4.82199 19.7235 4.49811 20.5397C4.07058 21.5631 3.7208 22.6255 3.43578 23.7008C3.22849 24.504 3.03415 25.2943 2.9046 26.1234C2.81391 26.6416 2.74913 27.1728 2.69731 27.691C2.60663 28.3258 2.55481 28.9606 2.54186 29.5955C2.5289 30.8392 2.47708 32.0699 2.61958 33.3137C2.68436 33.9355 2.74913 34.5574 2.83982 35.1792C2.93051 35.7493 3.03415 36.3193 3.1637 36.8764C3.34508 37.6407 3.53942 38.3921 3.75966 39.1436C3.88922 39.597 4.04468 40.0504 4.22605 40.5039C4.52402 41.2553 4.80904 41.9937 5.14588 42.7192C5.56045 43.6261 6.02684 44.4941 6.57097 45.3362C7.05032 46.0876 7.54262 46.8261 8.07379 47.5386C8.66973 48.3548 9.33045 49.1192 10.03 49.8447C10.5612 50.4018 11.1442 50.92 11.7013 51.4641C11.8049 51.5678 11.9086 51.6714 12.0252 51.775C12.5304 52.1766 13.0486 52.5912 13.5669 52.9928C14.694 53.8479 15.8988 54.6123 17.1555 55.2859C18.3474 55.9078 19.5782 56.4519 20.8607 56.8924C22.0267 57.307 23.2186 57.6309 24.4235 57.89C25.0064 58.0195 25.5894 58.0713 26.1854 58.175C27.0404 58.3175 27.9084 58.3952 28.7894 58.4211C29.9554 58.447 31.1343 58.4859 32.3003 58.3434C32.8444 58.2786 33.3886 58.2268 33.9327 58.162C34.3861 58.1102 34.8266 58.0454 35.2671 57.9547C35.9796 57.7993 36.6663 57.6179 37.3788 57.4495C38.2986 57.2163 39.1926 56.9183 40.0606 56.5685C41.2784 56.0892 42.4573 55.5321 43.5974 54.8843C44.3618 54.4568 45.1132 53.9774 45.8387 53.4722C46.914 52.7337 47.9245 51.9046 48.8702 51.0107C49.79 50.1556 50.6451 49.2358 51.4224 48.2512C51.8499 47.707 52.2386 47.15 52.6532 46.6058C53.2362 45.8026 53.7544 44.9605 54.2208 44.0795C54.5706 43.4447 54.8556 42.784 55.1795 42.1362C55.5811 41.2812 55.9309 40.3873 56.2159 39.4804C56.6693 38.0683 57.0062 36.6302 57.2394 35.1663C57.3819 34.2594 57.4596 33.3525 57.5374 32.4456C57.5892 31.8626 57.5892 31.2797 57.5892 30.6837C57.5244 30.3857 57.4855 30.1137 57.4596 29.8287Z" fill="#0465B6"/>
<path id="Vector_16" d="M9.4206 43.6924L9.25218 43.796L8.4619 42.4487C8.31939 42.2025 8.07324 41.8009 8.07324 41.8009L8.2028 41.7232C8.25462 41.8009 8.33236 41.8657 8.42305 41.8786C8.5526 41.9045 8.68214 41.8398 9.05785 41.6195L10.5866 40.7256C10.8716 40.5572 10.9623 40.4924 11.0012 40.4147C11.04 40.324 11.0271 40.2074 10.9752 40.1167L11.1048 40.039C11.1048 40.039 11.2991 40.4147 11.4546 40.6738L12.2449 42.0341L12.0765 42.1377C11.8433 42.2802 11.6619 42.3968 11.6619 42.3968L11.5841 42.2673C11.921 42.06 11.7914 41.775 11.6489 41.5418L11.4416 41.179L10.3534 41.8138L10.5477 42.1377C10.6643 42.345 10.8198 42.5134 11.1307 42.358L11.2084 42.5005C11.2084 42.5005 11.0012 42.6041 10.755 42.7596C10.47 42.928 10.3145 43.0316 10.3145 43.0316L10.2368 42.9021C10.4829 42.7337 10.457 42.5264 10.3145 42.2802L10.1331 41.9563L9.13559 42.5393C8.94126 42.6559 8.92831 42.7078 9.07081 42.941L9.14854 43.0835C9.23923 43.2389 9.44651 43.5239 9.83517 43.3167L9.91291 43.4462C9.89996 43.4462 9.64084 43.5628 9.4206 43.6924Z" fill="#0465B6"/>
<path id="Vector_17" d="M11.2726 46.3087L11.1171 46.4253L10.2103 45.1945C10.0419 44.9613 9.75684 44.5856 9.75684 44.5856L9.87344 44.5079C9.93821 44.5856 10.0159 44.6375 10.1196 44.6504C10.2491 44.6634 10.3657 44.5856 10.7285 44.3265L12.1536 43.2901C12.4127 43.0958 12.4904 43.018 12.5293 42.9403C12.5552 42.8367 12.5293 42.733 12.4775 42.6423L12.5941 42.5516C12.5941 42.5516 12.7884 42.8496 13.0086 43.1606C13.2677 43.5103 13.5268 43.8342 13.5268 43.8342L13.4103 43.9249C13.3325 43.8213 13.203 43.7047 13.0734 43.7047C12.9827 43.7047 12.8791 43.7565 12.5811 43.9638L10.871 45.2205C10.6896 45.363 10.6896 45.4018 10.8451 45.6221L10.9228 45.7257C11.0265 45.8682 11.2597 46.1273 11.6354 45.8812L11.7261 46.0107C11.7131 45.9978 11.4799 46.1532 11.2726 46.3087Z" fill="#0465B6"/>
<path id="Vector_18" d="M13.3727 48.6407L13.2302 48.7703L12.1679 47.6302C11.9736 47.4229 11.6367 47.0731 11.6367 47.0731L11.7404 46.9695C11.8051 47.0343 11.8958 47.0731 11.9995 47.0731C12.129 47.0731 12.2327 46.9824 12.5565 46.6715L13.8521 45.4667C14.0853 45.2464 14.163 45.1557 14.1889 45.0651C14.2019 44.9614 14.176 44.8578 14.0982 44.78L14.2019 44.6893C14.2019 44.6893 14.4739 45.0132 14.6812 45.2335L15.7436 46.3865L15.6011 46.5161C15.3938 46.6974 15.2642 46.8529 15.2642 46.8529L15.1606 46.7363C15.4456 46.4642 15.2513 46.2181 15.0699 46.0108L14.7849 45.6999L13.8521 46.5549L14.1112 46.827C14.2667 46.9954 14.461 47.1379 14.7331 46.9177L14.8367 47.0343C14.8367 47.0343 14.6553 47.1768 14.448 47.3841C14.2019 47.6043 14.0853 47.7339 14.0853 47.7339L13.9816 47.6173C14.1889 47.397 14.1241 47.2027 13.9169 46.9954L13.6578 46.7363L12.8157 47.5136C12.6472 47.6691 12.6472 47.7209 12.8416 47.9152L12.9582 48.0448C13.0877 48.1873 13.3339 48.4075 13.6837 48.1225L13.7873 48.2391C13.7743 48.278 13.5541 48.4723 13.3727 48.6407Z" fill="#0465B6"/>
<path id="Vector_19" d="M17.6596 48.9506C17.7373 48.847 17.7762 48.7304 17.7502 48.6008C17.7114 48.4195 17.6077 48.277 17.4523 48.1733C17.1284 47.9142 16.5843 47.5903 15.6774 48.6915C15.1203 49.3652 14.9389 50 15.5349 50.5053C15.6644 50.6478 15.8588 50.7126 16.0531 50.6867C16.1697 50.6607 16.2604 50.596 16.3381 50.5053L16.4547 50.6089C16.4547 50.6089 16.2474 50.8292 16.079 51.0364L16.0142 51.1142C15.7422 50.9976 15.496 50.8551 15.2758 50.6607C14.7835 50.2591 14.4985 49.7798 14.5114 49.2616C14.5373 48.8729 14.7057 48.4972 14.9648 48.2122C15.5478 47.4996 16.2604 47.3442 16.9082 47.5644C17.1673 47.6681 17.4005 47.8106 17.6207 47.979C17.828 48.1474 18.0093 48.3288 18.1907 48.5361C18.1907 48.5361 18.0871 48.6397 17.9705 48.7822C17.8539 48.9247 17.7632 49.0543 17.7632 49.0543L17.6596 48.9506Z" fill="#0465B6"/>
<path id="Vector_20" d="M20.3436 50.6624C20.5509 50.3126 20.3436 50.1312 20.1104 50.0017L19.8383 49.8332L18.5946 51.8672C18.4133 52.1782 18.3614 52.2818 18.3744 52.3725C18.3744 52.502 18.5039 52.6057 18.6205 52.6834L18.5428 52.813C18.5428 52.813 18.193 52.5798 17.8303 52.3466C17.4546 52.1263 17.0918 51.9191 17.0918 51.9191L17.1695 51.7895C17.2732 51.8543 17.3898 51.8802 17.5193 51.8672C17.6877 51.8284 17.8043 51.6081 17.9728 51.3361L19.1517 49.3928L18.8796 49.2243C18.6464 49.0818 18.4003 48.9782 18.1801 49.315L18.0505 49.2373C18.0505 49.2373 18.18 49.0559 18.3226 48.8227L18.4262 48.6543L20.8489 50.1183L20.7452 50.2867C20.6027 50.5199 20.4991 50.7272 20.4991 50.7272L20.3436 50.6624Z" fill="#0465B6"/>
<path id="Vector_21" d="M22.2088 54.4839C21.7165 54.2766 21.6906 54.0693 21.6259 53.7584C21.5352 53.3438 21.4445 52.5535 21.4445 52.5535L21.3279 52.5017L21.0688 53.1365C20.9392 53.4345 20.9263 53.5511 20.9392 53.6418C20.9651 53.7454 21.0429 53.8232 21.1336 53.862L21.0817 53.9916C21.0817 53.9916 20.719 53.8232 20.4469 53.7066C20.1749 53.59 19.7344 53.4345 19.7344 53.4345L19.7862 53.3049C19.8769 53.3438 19.9805 53.3309 20.0583 53.292C20.1749 53.2272 20.2396 53.0977 20.3951 52.696L21.0688 51.0637C21.1983 50.7657 21.2113 50.6491 21.1983 50.5714C21.1724 50.4677 21.0947 50.39 21.004 50.3511L21.0558 50.2216C21.0558 50.2216 21.3408 50.3511 21.6129 50.4677C21.9497 50.6102 22.0534 50.6361 22.3773 50.7657C22.753 50.9212 23.025 51.0637 23.1675 51.2839C23.336 51.5171 23.3619 51.8151 23.2453 52.0871C23.0898 52.5147 22.6493 52.7738 22.1959 52.6831C22.1959 52.6831 22.3643 53.4863 22.4939 53.9398C22.5716 54.2118 22.6105 54.445 22.8307 54.5616L22.7789 54.6912C22.5846 54.6264 22.3902 54.5616 22.2088 54.4839ZM22.1829 50.9471C22.1182 50.9212 22.0534 50.8953 21.9886 50.8823L21.4186 52.2685C21.4186 52.2685 21.5222 52.3203 21.6259 52.3592C21.6777 52.3851 21.7425 52.3981 21.8072 52.411C21.872 52.411 22.17 52.4758 22.4291 51.841C22.7012 51.1803 22.3514 51.0248 22.1829 50.9471Z" fill="#0465B6"/>
<path id="Vector_22" d="M25.3177 51.9818C25.214 52.0595 25.1751 52.1891 25.0585 52.6166L24.6181 54.3267C24.5403 54.6376 24.5274 54.7542 24.5533 54.8449C24.5922 54.9356 24.6828 55.0133 24.7865 55.0392L24.7476 55.1818C24.7476 55.1818 24.346 55.0522 24.048 54.9874C23.763 54.9097 23.3096 54.819 23.3096 54.819L23.3484 54.6765C23.4391 54.7024 23.5428 54.6765 23.6205 54.6247C23.7241 54.5469 23.763 54.4174 23.8796 53.9899L24.3201 52.2798C24.3978 51.9688 24.4108 51.8522 24.3849 51.7615C24.346 51.6708 24.2553 51.5931 24.1517 51.5672L24.1905 51.4247C24.1905 51.4247 24.5922 51.5542 24.8901 51.619C25.1752 51.6968 25.6286 51.7874 25.6286 51.7874L25.5897 51.93C25.499 51.904 25.3954 51.93 25.3177 51.9818Z" fill="#0465B6"/>
<path id="Vector_23" d="M28.5053 52.9024C28.5183 52.7728 28.4794 52.6562 28.4017 52.5656C28.2721 52.436 28.1037 52.3712 27.9223 52.3583C27.5077 52.3065 26.8729 52.3453 26.7175 53.7575C26.6138 54.6255 26.8081 55.2603 27.5855 55.351C27.7668 55.3898 27.9612 55.338 28.1166 55.2214C28.1944 55.1437 28.2462 55.0271 28.2591 54.9234L28.4146 54.9364C28.4146 54.9364 28.3628 55.2344 28.3239 55.5064L28.311 55.5971C28.026 55.6489 27.7409 55.6489 27.4559 55.6101C26.8211 55.5323 26.3158 55.2862 26.0567 54.8587C25.8754 54.5089 25.7976 54.1202 25.8624 53.7315C25.966 52.8117 26.4713 52.3065 27.145 52.138C27.4171 52.0862 27.7021 52.0733 27.9741 52.1121C28.2332 52.138 28.4923 52.1899 28.7514 52.2546C28.7514 52.2546 28.7255 52.3971 28.6996 52.5785C28.6737 52.7988 28.6737 52.9154 28.6737 52.9154L28.5053 52.9024Z" fill="#0465B6"/>
<path id="Vector_24" d="M33.195 52.4095L32.4176 55.4799L31.8347 55.6224L30.4873 52.7075C30.3837 52.4743 30.293 52.4095 30.1116 52.4095L30.0986 52.267C30.0986 52.267 30.4614 52.2411 30.8112 52.2022C31.1998 52.1634 31.5237 52.0986 31.5237 52.0986L31.5367 52.2411C31.4201 52.254 31.2646 52.3188 31.2905 52.4743C31.3164 52.5779 31.3553 52.6816 31.4071 52.7723L32.1326 54.3269C32.2881 54.6767 32.327 54.8063 32.327 54.8192C32.327 54.7933 32.3529 54.6119 32.4176 54.288L32.7545 52.6038C32.7804 52.5002 32.8063 52.3836 32.7934 52.28C32.7804 52.1245 32.6249 52.0986 32.4954 52.1115L32.4824 51.969C32.4824 51.969 32.7156 51.9561 32.9877 51.9302C33.2597 51.9043 33.467 51.8524 33.467 51.8524L33.48 51.9949C33.2727 52.0597 33.2338 52.2281 33.195 52.4095Z" fill="#0465B6"/>
<path id="Vector_25" d="M36.6022 54.3795L36.654 54.5609L35.1512 54.9754C34.8791 55.0532 34.4127 55.1827 34.4127 55.1827L34.3739 55.0402C34.4645 55.0143 34.5423 54.9495 34.5941 54.8718C34.6459 54.7552 34.62 54.6127 34.5034 54.1852L34.037 52.488C33.9463 52.1771 33.9075 52.0734 33.8427 52.0087C33.752 51.9439 33.6484 51.9309 33.5447 51.9568L33.5059 51.8143C33.5059 51.8143 33.9204 51.7236 34.2055 51.6459L35.7212 51.2313L35.773 51.4257C35.8508 51.6977 35.9156 51.8921 35.9156 51.8921L35.773 51.9309C35.6564 51.5552 35.3455 51.607 35.0864 51.6848L34.6848 51.7884L35.0216 53.0062L35.3844 52.9026C35.6176 52.8378 35.8249 52.7342 35.7471 52.3973L35.8896 52.3585C35.8896 52.3585 35.9415 52.5917 36.0192 52.8637C36.1099 53.1746 36.1617 53.356 36.1617 53.356L36.0192 53.3949C35.9156 53.1099 35.7212 53.084 35.4362 53.1617L35.0864 53.2524L35.3844 54.3665C35.4492 54.5868 35.488 54.6127 35.7601 54.535L35.9156 54.4961C36.0969 54.4443 36.4079 54.3277 36.3172 53.8872L36.4597 53.8483C36.4726 53.8483 36.5374 54.1333 36.6022 54.3795Z" fill="#0465B6"/>
<path id="Vector_26" d="M39.3229 49.9605C39.284 50.09 39.3358 50.2196 39.5302 50.6212L40.2686 52.2277C40.3982 52.5257 40.463 52.6163 40.5407 52.6682C40.6314 52.707 40.735 52.707 40.8387 52.6682L40.9034 52.7977C40.9034 52.7977 40.5148 52.9532 40.2427 53.0827C39.9707 53.2123 39.5561 53.4196 39.5561 53.4196L39.4913 53.29C39.582 53.2512 39.6468 53.1734 39.6727 53.0827C39.7116 52.9532 39.6597 52.8236 39.4654 52.422L39.1674 51.8002L38.0533 52.3184L38.4031 53.0827C38.5326 53.3807 38.5974 53.4714 38.6751 53.5232C38.7658 53.5621 38.8694 53.5621 38.9731 53.5232L39.0379 53.6528C39.0379 53.6528 38.6492 53.8082 38.3771 53.9378C38.1051 54.0673 37.6905 54.2746 37.6905 54.2746L37.6257 54.1451C37.7164 54.1062 37.7812 54.0285 37.8071 53.9378C37.846 53.8082 37.7942 53.6787 37.5998 53.2771L36.8614 51.6706C36.7318 51.3726 36.667 51.2819 36.5893 51.2301C36.4986 51.1913 36.395 51.1913 36.2913 51.2301L36.2266 51.1006C36.2266 51.1006 36.6152 50.9451 36.8873 50.8155C37.1593 50.686 37.5739 50.4787 37.5739 50.4787L37.6387 50.6083C37.548 50.6471 37.4832 50.7249 37.4573 50.8155C37.4185 50.9451 37.4703 51.0747 37.6646 51.4763L37.9108 52.0204L39.0379 51.5022L38.714 50.8285C38.5844 50.5305 38.5197 50.4398 38.4419 50.388C38.3512 50.3492 38.2476 50.3492 38.1439 50.388L38.0792 50.2585C38.0792 50.2585 38.4678 50.103 38.7399 49.9735C39.012 49.8439 39.4265 49.6366 39.4265 49.6366L39.4913 49.7662C39.4136 49.7921 39.3488 49.8698 39.3229 49.9605Z" fill="#0465B6"/>
<path id="Vector_27" d="M40.98 48.8869C40.967 49.0164 41.0318 49.133 41.278 49.5087L42.2237 50.9986C42.3921 51.2707 42.4698 51.3614 42.5605 51.4002C42.6642 51.4261 42.7678 51.4132 42.8585 51.3614L42.9362 51.478C42.9362 51.478 42.5735 51.6852 42.3144 51.8537C42.0682 52.0091 41.6796 52.2812 41.6796 52.2812L41.6018 52.1646C41.6796 52.1128 41.7314 52.0221 41.7443 51.9314C41.7573 51.8018 41.6925 51.6852 41.4464 51.3095L40.5006 49.8197C40.3322 49.5476 40.2545 49.4569 40.1638 49.4181C40.0602 49.3921 39.9565 49.4051 39.8658 49.4569L39.7881 49.3403C39.7881 49.3403 40.1508 49.133 40.4099 48.9646C40.669 48.7962 41.0447 48.5371 41.0447 48.5371L41.1225 48.6537C41.0447 48.7055 40.9929 48.7962 40.98 48.8869Z" fill="#0465B6"/>
<path id="Vector_28" d="M43.8826 47.2275C43.8048 47.1368 43.6883 47.072 43.5587 47.0591C43.3773 47.0591 43.2089 47.1368 43.0794 47.2664C42.7555 47.5255 42.3409 48.0048 43.2348 49.106C43.7789 49.7797 44.3749 50.0906 44.9838 49.5983C45.1393 49.4947 45.2429 49.3133 45.2558 49.1319C45.2558 49.0153 45.204 48.9117 45.1392 48.821L45.2558 48.7174C45.2558 48.7174 45.4243 48.9635 45.6057 49.1708L45.6704 49.2485C45.515 49.4817 45.3077 49.702 45.0874 49.8704C44.5951 50.272 44.064 50.4534 43.5717 50.3498C43.1959 50.2461 42.8721 50.0129 42.6389 49.702C42.0559 48.9765 42.0429 48.2639 42.3927 47.668C42.5482 47.4348 42.7296 47.2275 42.9498 47.0461C43.1571 46.8777 43.3773 46.7352 43.5976 46.5927C43.5976 46.5927 43.6753 46.7093 43.8049 46.8518C43.9344 46.9943 44.0251 47.1109 44.0251 47.1109L43.8826 47.2275Z" fill="#0465B6"/>
<path id="Vector_29" d="M47.8447 46.8912L47.9872 47.0208L46.9249 48.122C46.7305 48.3293 46.4066 48.6791 46.4066 48.6791L46.303 48.5754C46.3678 48.5107 46.4066 48.407 46.3937 48.3163C46.3807 48.1868 46.29 48.0831 45.9662 47.7722L44.6965 46.5544C44.4633 46.3342 44.3726 46.2564 44.282 46.2435C44.1783 46.2305 44.0747 46.2694 44.0099 46.3471L43.9062 46.2435C43.9062 46.2435 44.1654 46.0103 44.4374 45.7253C44.7354 45.4143 45.0075 45.1034 45.0075 45.1034L45.1111 45.207C45.0075 45.2977 44.9427 45.4273 44.9556 45.5698C44.9686 45.6605 45.0334 45.7512 45.2925 46.0103L46.8212 47.4872C46.9896 47.6427 47.0415 47.6297 47.2228 47.4483L47.3135 47.3447C47.4431 47.2151 47.6504 46.9431 47.3524 46.6062L47.456 46.4896C47.469 46.5026 47.6633 46.7228 47.8447 46.8912Z" fill="#0465B6"/>
<path id="Vector_30" d="M49.7913 44.4552L49.9468 44.5718L48.9881 45.8026C48.8196 46.0228 48.5346 46.4115 48.5346 46.4115L48.418 46.3208C48.4699 46.2431 48.4958 46.1524 48.4828 46.0487C48.4569 45.9192 48.3533 45.8285 48.0035 45.5564L46.6043 44.4682C46.3452 44.2739 46.2545 44.2091 46.1638 44.2091C46.0602 44.2091 45.9695 44.2609 45.9047 44.3386L45.7881 44.248C45.7881 44.248 46.0601 43.9241 46.2415 43.6909L47.2132 42.4472L47.3686 42.5767C47.5889 42.7451 47.7573 42.8617 47.7573 42.8617L47.6666 42.9913C47.3557 42.7581 47.1355 42.9913 46.967 43.1986L46.7079 43.5225L47.7055 44.2998L47.9387 44.0018C48.0812 43.8204 48.1848 43.6002 47.9257 43.367L48.0164 43.2374C48.0164 43.2374 48.1978 43.3799 48.418 43.5613C48.6771 43.7686 48.8326 43.8722 48.8326 43.8722L48.7419 44.0018C48.4958 43.8334 48.3144 43.937 48.133 44.1573L47.9128 44.4552L48.8196 45.1548C49.001 45.2973 49.0528 45.2844 49.2213 45.0641L49.3249 44.9346C49.4415 44.7921 49.6229 44.4941 49.286 44.1961L49.3767 44.0666C49.3767 44.1054 49.584 44.2998 49.7913 44.4552Z" fill="#0465B6"/>
<path id="Vector_31" d="M50.9429 43.1331C50.8134 43.3663 50.632 43.5736 50.4247 43.742L50.347 43.6902C50.1138 43.5477 49.8547 43.3922 49.8547 43.3922L49.9324 43.2627C50.036 43.3145 50.1527 43.3404 50.2693 43.3274C50.4636 43.2886 50.619 43.172 50.7097 42.9906C51.0336 42.4724 50.7745 42.278 50.619 42.1874C50.347 42.0189 50.1397 42.1096 49.8288 42.2392L49.5178 42.3687C49.1292 42.5372 48.8053 42.6408 48.3389 42.3428C48.015 42.1355 47.6523 41.6691 48.1705 40.84C48.313 40.6068 48.4814 40.3866 48.6628 40.1922C48.6628 40.1922 48.7664 40.27 48.9348 40.3736C49.0903 40.4772 49.2328 40.542 49.2328 40.542L49.1551 40.6716C49.0514 40.6068 48.9219 40.5938 48.7923 40.6198C48.6239 40.6845 48.4944 40.8011 48.4166 40.9566C48.1575 41.3712 48.3648 41.5655 48.5073 41.6562C48.7405 41.7987 48.896 41.7339 49.194 41.5914L49.5697 41.423C49.9972 41.2287 50.3081 41.125 50.8004 41.4489C51.6166 41.993 51.1632 42.7703 50.9429 43.1331Z" fill="#0465B6"/>
</g>
</svg>
