<svg width="30" height="30" viewBox="0 0 30 30" fill="none" xmlns="http://www.w3.org/2000/svg">
<path d="M19.4692 15C19.4692 15.1667 19.438 15.3283 19.3755 15.485C19.313 15.6417 19.2297 15.7717 19.1255 15.875L13.3755 21.625C13.1463 21.8542 12.8547 21.9688 12.5005 21.9688C12.1463 21.9688 11.8547 21.8542 11.6255 21.625C11.3963 21.3958 11.2817 21.1042 11.2817 20.75C11.2817 20.3958 11.3963 20.1042 11.6255 19.875L16.5005 15L11.6255 10.125C11.3963 9.89583 11.2817 9.60417 11.2817 9.25C11.2817 8.89583 11.3963 8.60417 11.6255 8.375C11.8547 8.14583 12.1463 8.03125 12.5005 8.03125C12.8547 8.03125 13.1463 8.14584 13.3755 8.375L19.1255 14.125C19.2505 14.25 19.3392 14.3854 19.3917 14.5313C19.4442 14.6771 19.4701 14.8333 19.4692 15Z" fill="white"/>
</svg>
