<svg width="20" height="20" viewBox="0 0 20 20" fill="none" xmlns="http://www.w3.org/2000/svg">
<path d="M4.89341 17.5036C4.23151 18.1655 3.15832 18.1655 2.49642 17.5036C1.83453 16.8417 1.83453 15.7685 2.49642 15.1066L9.31944 8.28358C9.76693 7.83609 9.97653 7.20636 9.89737 6.5785C9.74558 5.37436 10.1319 4.11538 11.0565 3.19074C12.2177 2.02959 13.9059 1.71806 15.3508 2.2544L15.5894 2.49298L13.4724 4.60996C12.9348 5.14759 12.9246 6.03775 13.4724 6.56497C14.0032 7.07592 14.8478 7.06975 15.3711 6.54647L17.507 4.41053L17.7456 4.64911C18.2819 6.09403 17.9704 7.78226 16.8093 8.94345C15.8846 9.86809 14.6256 10.2544 13.4215 10.1026C12.7936 10.0234 12.1639 10.233 11.7165 10.6805L4.89341 17.5036Z" stroke="#646464" stroke-width="1.2" stroke-miterlimit="10"/>
</svg>
