<svg width="21" height="20" viewBox="0 0 21 20" fill="none" xmlns="http://www.w3.org/2000/svg">
<path d="M5.39341 17.5036C4.73151 18.1655 3.65832 18.1655 2.99642 17.5036C2.33453 16.8417 2.33453 15.7685 2.99642 15.1066L9.81944 8.28358C10.2669 7.83609 10.4765 7.20636 10.3974 6.5785C10.2456 5.37436 10.6319 4.11538 11.5565 3.19074C12.7177 2.02959 14.4059 1.71806 15.8508 2.2544L16.0894 2.49298L13.9724 4.60996C13.4348 5.14759 13.4246 6.03775 13.9724 6.56497C14.5032 7.07592 15.3478 7.06975 15.8711 6.54647L18.007 4.41053L18.2456 4.64911C18.7819 6.09403 18.4704 7.78226 17.3093 8.94345C16.3846 9.86809 15.1256 10.2544 13.9215 10.1026C13.2936 10.0234 12.6639 10.233 12.2165 10.6805L5.39341 17.5036Z" stroke="#3C3C3C" stroke-width="1.2" stroke-miterlimit="10"/>
</svg>
