<svg width="16" height="14" viewBox="0 0 16 14" fill="none" xmlns="http://www.w3.org/2000/svg">
<path d="M14.5 13H1.5C0.67 13 0 12.33 0 11.5V2.5C0 1.67 0.67 1 1.5 1H14.5C15.33 1 16 1.67 16 2.5V11.5C16 12.33 15.33 13 14.5 13ZM1.5 2C1.22 2 1 2.22 1 2.5V11.5C1 11.78 1.22 12 1.5 12H14.5C14.78 12 15 11.78 15 11.5V2.5C15 2.22 14.78 2 14.5 2H1.5Z" fill="#3C3C3C"/>
<path d="M7.99992 8.96061C7.29992 8.96061 6.65992 8.68061 6.17992 8.17061L0.929923 2.59061C0.739923 2.39061 0.749923 2.07061 0.949923 1.88061C1.14992 1.69061 1.46992 1.70061 1.65992 1.90061L6.90992 7.48061C7.47992 8.09061 8.51992 8.09061 9.08992 7.48061L14.3399 1.91061C14.5299 1.71061 14.8499 1.70061 15.0499 1.89061C15.2499 2.08061 15.2599 2.40061 15.0699 2.60061L9.81992 8.18061C9.33992 8.69061 8.69992 8.97061 7.99992 8.97061V8.96061Z" fill="#3C3C3C"/>
</svg>
