<svg width="109" height="118" viewBox="0 0 109 118" fill="none" xmlns="http://www.w3.org/2000/svg">
<circle cx="91.327" cy="17.8999" r="4.93833" fill="#EFEFEF"/>
<circle cx="102.027" cy="29.4227" r="3.29222" fill="#EFEFEF"/>
<circle cx="106.142" cy="17.8998" r="2.46917" fill="#EFEFEF"/>
<circle cx="96.2653" cy="3.08489" r="2.46917" fill="#EFEFEF"/>
<circle cx="23.1507" cy="92.9873" r="4.93833" transform="rotate(138.532 23.1507 92.9873)" fill="#EFEFEF"/>
<circle cx="7.5026" cy="91.4385" r="3.29222" transform="rotate(138.532 7.5026 91.4385)" fill="#EFEFEF"/>
<circle cx="12.0494" cy="102.798" r="2.46917" transform="rotate(138.532 12.0494 102.798)" fill="#EFEFEF"/>
<circle cx="29.2608" cy="107.359" r="2.46917" transform="rotate(138.532 29.2608 107.359)" fill="#EFEFEF"/>
<circle class="main-circle" cx="58.3887" cy="56.6157" r="36" fill="#F3F3F3" stroke="#0465B6" stroke-width="2"/>
<path class="message-box-outer" d="M71 69H45C43.34 69 42 67.66 42 66V48C42 46.34 43.34 45 45 45H71C72.66 45 74 46.34 74 48V66C74 67.66 72.66 69 71 69ZM45 47C44.44 47 44 47.44 44 48V66C44 66.56 44.44 67 45 67H71C71.56 67 72 66.56 72 66V48C72 47.44 71.56 47 71 47H45Z" fill="#0465B6"/>
<path class="message-box-inner" d="M58.0001 60.92C56.6001 60.92 55.3201 60.36 54.3601 59.34L43.8601 48.18C43.4801 47.78 43.5001 47.14 43.9001 46.76C44.3001 46.38 44.9401 46.4 45.3201 46.8L55.8201 57.96C56.9601 59.18 59.0401 59.18 60.1801 57.96L70.6801 46.82C71.0601 46.42 71.7001 46.4 72.1001 46.78C72.5001 47.16 72.5201 47.8 72.1401 48.2L61.6401 59.36C60.6801 60.38 59.4001 60.94 58.0001 60.94V60.92Z" fill="#0465B6"/>
</svg>
