<svg width="21" height="21" viewBox="0 0 21 21" fill="none" xmlns="http://www.w3.org/2000/svg">
<g id="fi_15486782">
<path id="Vector" fill-rule="evenodd" clip-rule="evenodd" d="M12.4688 6.56248C12.4688 7.64978 11.5874 8.53125 10.5001 8.53125C10.2583 8.53125 10.0267 8.48761 9.81266 8.40788L10.9873 9.80779C12.5684 9.57246 13.7813 8.2091 13.7813 6.56248C13.7813 4.7503 12.3122 3.28123 10.5001 3.28123C9.05279 3.28123 7.82435 4.21823 7.38834 5.51869L8.56362 6.91931C8.54242 6.80355 8.53133 6.6843 8.53133 6.56248C8.53133 5.47518 9.41281 4.59373 10.5001 4.59373C11.5874 4.59373 12.4688 5.47518 12.4688 6.56248ZM8.54905 11.2429L4.34196 6.26856C4.10727 5.99107 4.1428 5.57568 4.4212 5.34207C4.69808 5.10974 5.11069 5.14503 5.34409 5.421L15.3146 17.2098C15.5493 17.4873 15.5138 17.9026 15.2353 18.1363C14.9584 18.3686 14.5459 18.3333 14.3124 18.0573L13.3029 16.8637C12.8878 16.9929 12.4463 17.0625 11.9887 17.0625H9.01151C6.5717 17.0625 4.59384 15.0846 4.59384 12.6448C4.59384 12.3874 4.7288 12.1509 4.96537 12.0493C5.50981 11.8155 6.66889 11.4176 8.54905 11.2429ZM12.3439 15.7299C12.2274 15.7432 12.1088 15.75 11.9887 15.75H9.01151C7.44556 15.75 6.15035 14.5908 5.93712 13.0837C6.60865 12.8582 7.80257 12.5636 9.60161 12.4874L12.3439 15.7299ZM12.1715 11.219L13.4024 12.686C14.1339 12.8058 14.6824 12.9559 15.0631 13.0837C15.006 13.4869 14.8716 13.8651 14.6752 14.2029L15.5554 15.2518C16.0905 14.5211 16.4063 13.6199 16.4063 12.6448C16.4063 12.3874 16.2713 12.1509 16.0348 12.0493C15.4639 11.8041 14.217 11.3785 12.1715 11.219Z" fill="#D32F2F"/>
</g>
</svg>
