<svg width="16" height="16" viewBox="0 0 16 16" fill="none" xmlns="http://www.w3.org/2000/svg">
<path id="Vector" d="M1.66667 13.9374H2.83333L10.0208 6.74992L8.85417 5.58325L1.66667 12.7708V13.9374ZM13.5833 5.54158L10.0417 2.04159L11.2083 0.874919C11.5278 0.555474 11.9203 0.395752 12.3858 0.395752C12.8514 0.395752 13.2436 0.555474 13.5625 0.874919L14.7292 2.04159C15.0486 2.36103 15.2153 2.74658 15.2292 3.19825C15.2431 3.64992 15.0903 4.0352 14.7708 4.35408L13.5833 5.54158ZM12.375 6.77075L3.54167 15.6041H0V12.0624L8.83333 3.22909L12.375 6.77075ZM9.4375 6.16658L8.85417 5.58325L10.0208 6.74992L9.4375 6.16658Z" fill="#303030"/>
</svg>
