<svg width="4" height="14" viewBox="0 0 4 14" fill="none" xmlns="http://www.w3.org/2000/svg">
<path d="M2 9.33202C1.60218 9.33202 1.22064 9.18339 0.939339 8.91885C0.658034 8.6543 0.5 8.29549 0.5 7.92136V1.41065C0.5 1.03653 0.658034 0.67772 0.939339 0.413171C1.22064 0.148622 1.60218 0 2 0C2.39783 0 2.77936 0.148622 3.06066 0.413171C3.34197 0.67772 3.5 1.03653 3.5 1.41065V7.92136C3.5 8.29549 3.34197 8.6543 3.06066 8.91885C2.77936 9.18339 2.39783 9.33202 2 9.33202Z" fill="#D32F2F"/>
<path d="M2 14.0013C2.82843 14.0013 3.5 13.3049 3.5 12.446C3.5 11.587 2.82843 10.8906 2 10.8906C1.17157 10.8906 0.5 11.587 0.5 12.446C0.5 13.3049 1.17157 14.0013 2 14.0013Z" fill="#D32F2F"/>
</svg>
