<svg width="32" height="32" viewBox="0 0 32 32" fill="none" xmlns="http://www.w3.org/2000/svg">
<path d="M12.2188 7.5279C12.1938 7.32165 11.9406 7.23415 11.7938 7.38102L10.4281 8.74665L6.25002 4.57165C6.20303 4.52512 6.13958 4.49902 6.07346 4.49902C6.00733 4.49902 5.94388 4.52512 5.89689 4.57165L4.57189 5.89352C4.52537 5.94051 4.49927 6.00396 4.49927 6.07009C4.49927 6.13621 4.52537 6.19966 4.57189 6.24665L8.75002 10.4248L7.37814 11.7966C7.3451 11.8299 7.32204 11.8717 7.31158 11.9173C7.30112 11.963 7.30369 12.0107 7.31899 12.055C7.3343 12.0992 7.36172 12.1383 7.39814 12.1678C7.43456 12.1973 7.47852 12.2159 7.52502 12.2216L12.5313 12.8123C12.6906 12.831 12.8281 12.6966 12.8094 12.5341L12.2188 7.5279ZM12.5344 19.1904L7.52502 19.781C7.31877 19.806 7.23127 20.0591 7.37814 20.206L8.75002 21.5779L4.57189 25.7498C4.52537 25.7968 4.49927 25.8602 4.49927 25.9263C4.49927 25.9925 4.52537 26.0559 4.57189 26.1029L5.89689 27.4248C5.99377 27.5216 6.15314 27.5216 6.25002 27.4248L10.4281 23.2498L11.7938 24.6154C11.827 24.6484 11.8688 24.6715 11.9145 24.682C11.9601 24.6924 12.0078 24.6898 12.0521 24.6745C12.0964 24.6592 12.1355 24.6318 12.1649 24.5954C12.1944 24.559 12.213 24.515 12.2188 24.4685L12.8094 19.4654C12.8281 19.306 12.6938 19.1716 12.5344 19.1904ZM19.4656 12.8091L24.475 12.2185C24.6813 12.1935 24.7688 11.9404 24.6219 11.7935L23.25 10.4248L27.4281 6.24977C27.525 6.1529 27.525 5.99352 27.4281 5.89665L26.1031 4.57477C26.0562 4.52825 25.9927 4.50215 25.9266 4.50215C25.8605 4.50215 25.797 4.52825 25.75 4.57477L21.5719 8.74665L20.2063 7.38102C20.1731 7.34798 20.1312 7.32492 20.0856 7.31446C20.0399 7.304 19.9922 7.30657 19.9479 7.32187C19.9037 7.33718 19.8646 7.3646 19.8351 7.40102C19.8056 7.43744 19.787 7.4814 19.7813 7.5279L19.1906 12.531C19.1719 12.6935 19.3063 12.8279 19.4656 12.8091ZM23.25 21.5748L24.6219 20.2029C24.6549 20.1697 24.678 20.1279 24.6885 20.0822C24.6989 20.0365 24.6963 19.9889 24.681 19.9446C24.6657 19.9003 24.6383 19.8612 24.6019 19.8317C24.5655 19.8023 24.5215 19.7836 24.475 19.7779L19.4688 19.1873C19.3094 19.1685 19.1719 19.3029 19.1906 19.4654L19.7813 24.4716C19.8063 24.6779 20.0594 24.7654 20.2063 24.6185L21.5719 23.2529L25.75 27.4279C25.8469 27.5248 26.0063 27.5248 26.1031 27.4279L27.4281 26.106C27.525 26.0091 27.525 25.8498 27.4281 25.7529L23.25 21.5748Z" fill="#3C3C3C"/>
</svg>
