<svg width="32" height="32" viewBox="0 0 32 32" fill="none" xmlns="http://www.w3.org/2000/svg">
<path d="M9.0621 7.3873L10.434 6.01542C10.467 5.98222 10.4901 5.9404 10.5005 5.89473C10.511 5.84907 10.5084 5.80138 10.4931 5.7571C10.4778 5.71282 10.4504 5.67373 10.414 5.64426C10.3776 5.6148 10.3336 5.59614 10.2871 5.59042L5.28085 4.9998C5.12148 4.98105 4.98398 5.11542 5.00273 5.27792L5.59335 10.2842C5.61835 10.4904 5.87148 10.5779 6.01835 10.431L7.38398 9.06542L11.5621 13.2404C11.659 13.3373 11.8184 13.3373 11.9152 13.2404L13.2402 11.9185C13.3371 11.8217 13.3371 11.6623 13.2402 11.5654L9.0621 7.3873ZM20.084 13.2404C20.1809 13.3373 20.3402 13.3373 20.4371 13.2404L24.6152 9.06542L25.9809 10.431C26.0141 10.4641 26.0559 10.4872 26.1015 10.4976C26.1472 10.5081 26.1949 10.5055 26.2392 10.4902C26.2835 10.4749 26.3225 10.4475 26.352 10.4111C26.3815 10.3746 26.4001 10.3307 26.4059 10.2842L26.9965 5.28105C27.0152 5.12167 26.8809 4.98417 26.7184 5.00292L21.7121 5.59355C21.5059 5.61855 21.4184 5.87167 21.5652 6.01855L22.9371 7.39042L18.759 11.5623C18.7125 11.6093 18.6864 11.6727 18.6864 11.7389C18.6864 11.805 18.7125 11.8684 18.759 11.9154L20.084 13.2404ZM26.4059 21.7154C26.3809 21.5092 26.1277 21.4217 25.9809 21.5685L24.6152 22.9342L20.4371 18.7592C20.3901 18.7126 20.3267 18.6865 20.2605 18.6865C20.1944 18.6865 20.131 18.7126 20.084 18.7592L18.759 20.081C18.7125 20.128 18.6864 20.1915 18.6864 20.2576C18.6864 20.3237 18.7125 20.3872 18.759 20.4342L22.9371 24.6123L21.5652 25.9842C21.5322 26.0174 21.5091 26.0592 21.4987 26.1049C21.4882 26.1505 21.4908 26.1982 21.5061 26.2425C21.5214 26.2868 21.5488 26.3259 21.5852 26.3553C21.6216 26.3848 21.6656 26.4035 21.7121 26.4092L26.7184 26.9998C26.8777 27.0185 27.0152 26.8842 26.9965 26.7217L26.4059 21.7154ZM11.9152 18.7592C11.8682 18.7126 11.8048 18.6865 11.7387 18.6865C11.6725 18.6865 11.6091 18.7126 11.5621 18.7592L7.38398 22.9342L6.01835 21.5685C5.98514 21.5355 5.94333 21.5124 5.89766 21.502C5.852 21.4915 5.80431 21.4941 5.76003 21.5094C5.71575 21.5247 5.67666 21.5521 5.64719 21.5885C5.61773 21.625 5.59907 21.6689 5.59335 21.7154L5.00273 26.7185C4.98398 26.8779 5.11835 27.0154 5.28085 26.9967L10.2871 26.406C10.4934 26.381 10.5809 26.1279 10.434 25.981L9.0621 24.6123L13.2402 20.4373C13.3371 20.3404 13.3371 20.181 13.2402 20.0842L11.9152 18.7592Z" fill="#3C3C3C"/>
</svg>
