<svg width="20" height="21" viewBox="0 0 20 21" fill="none" xmlns="http://www.w3.org/2000/svg">
<g clip-path="url(#clip0_4511_62181)">
<path d="M19.9115 11.8377C19.6611 13.7078 18.8856 15.4647 17.669 16.9183C15.9546 18.9668 13.5451 20.225 10.8843 20.4613C10.5827 20.488 10.2817 20.5013 9.98259 20.5013C7.78349 20.5014 5.669 19.784 3.91482 18.4362L4.01708 19.588C4.03614 19.8029 3.87743 19.9926 3.66251 20.0117C3.65079 20.0127 3.63907 20.0132 3.62751 20.0132C3.42739 20.0132 3.25693 19.8603 3.23888 19.6571L3.049 17.518C3.02993 17.3032 3.18864 17.1135 3.40353 17.0944L5.54239 16.9045C5.75771 16.8857 5.94696 17.0442 5.96607 17.2591C5.98513 17.474 5.82642 17.6637 5.61154 17.6827L4.36146 17.7937C5.98419 19.0505 7.9447 19.72 9.98396 19.7201C10.2599 19.7201 10.537 19.7078 10.8152 19.6831C13.2681 19.4653 15.4894 18.3054 17.0699 16.4169C19.3301 13.7163 19.8577 10.0323 18.4467 6.80253C18.3604 6.60484 18.4506 6.37457 18.6483 6.2882C18.8459 6.20183 19.0763 6.29207 19.1627 6.48976C19.8963 8.16906 20.1553 10.0184 19.9115 11.8377ZM15.5977 3.17527L14.4151 3.28027C14.2002 3.29933 14.0415 3.48902 14.0606 3.7039C14.0786 3.90707 14.2491 4.06003 14.4492 4.06C14.4608 4.06 14.4725 4.05949 14.4842 4.05843L16.6233 3.86851C16.8382 3.84945 16.9969 3.65976 16.9779 3.44488L16.788 1.30601C16.7689 1.09113 16.5792 0.932613 16.3643 0.951441C16.1494 0.970503 15.9907 1.16019 16.0098 1.37507L16.1176 2.58964C14.119 1.04105 11.6479 0.313941 9.11552 0.538667C6.45478 0.774917 4.04529 2.03316 2.33087 4.08164C1.11427 5.53527 0.338879 7.2921 0.0883713 9.16226C-0.155262 10.9815 0.103684 12.8309 0.837199 14.5103C0.90134 14.6571 1.04478 14.7446 1.19536 14.7446C1.24755 14.7446 1.30064 14.7341 1.35154 14.7119C1.54923 14.6256 1.6395 14.3953 1.55314 14.1976C0.142356 10.9676 0.669895 7.28351 2.93001 4.58304C6.10474 0.789605 11.7064 0.198316 15.5977 3.17527ZM12.9416 10.4878C12.9416 12.1017 11.6286 13.4147 10.0147 13.4147C8.40075 13.4147 7.08771 12.1017 7.08771 10.4878C7.08771 8.87386 8.40071 7.56082 10.0147 7.56082C11.6285 7.56082 12.9416 8.87386 12.9416 10.4878ZM12.1603 10.4878C12.1603 9.30464 11.1978 8.34207 10.0147 8.34207C8.83154 8.34207 7.86896 9.30464 7.86896 10.4878C7.86896 11.6709 8.83154 12.6335 10.0147 12.6335C11.1978 12.6335 12.1603 11.6709 12.1603 10.4878ZM14.7955 12.468C14.6781 12.7516 14.6702 13.1721 15.0003 13.5023C15.3077 13.8096 15.3077 14.3098 15.0003 14.6172L14.1441 15.4734C13.8366 15.7808 13.3364 15.7808 13.0291 15.4734C12.699 15.1433 12.2784 15.1511 11.9949 15.2686C11.7114 15.386 11.4084 15.6778 11.4084 16.1447C11.4084 16.5794 11.0547 16.933 10.6201 16.933H9.40915C8.97446 16.933 8.62079 16.5794 8.62079 16.1447C8.62079 15.677 8.31806 15.385 8.03474 15.2677C7.75138 15.1503 7.33079 15.1427 7.00009 15.4734C6.85122 15.6223 6.65325 15.7043 6.44263 15.7043C6.232 15.7043 6.03403 15.6223 5.88517 15.4734L5.02892 14.6171C4.72154 14.3098 4.72154 13.8096 5.02892 13.5022C5.35904 13.1721 5.35118 12.7515 5.23372 12.468C5.1163 12.1844 4.82447 11.8815 4.35763 11.8815C3.92294 11.8815 3.56927 11.5279 3.56927 11.0932V9.8823C3.56927 9.44761 3.92294 9.09394 4.35763 9.09394C4.82447 9.09394 5.1163 8.79101 5.23372 8.50746C5.35118 8.22394 5.35904 7.80335 5.02892 7.47324C4.72157 7.16582 4.72157 6.66566 5.02892 6.35832L5.88517 5.50207C6.03407 5.35316 6.23204 5.27117 6.44263 5.27117C6.65321 5.27117 6.85122 5.3532 7.00009 5.5021C7.33017 5.83222 7.75079 5.82437 8.03435 5.70691C8.31786 5.58949 8.62079 5.29765 8.62079 4.83078C8.62079 4.39609 8.97446 4.04242 9.40915 4.04242H10.6201C11.0547 4.04242 11.4084 4.39605 11.4084 4.83078C11.4084 5.29765 11.7114 5.58949 11.9949 5.70691C12.2784 5.82429 12.699 5.83218 13.0291 5.50207C13.3365 5.19472 13.8367 5.19464 14.144 5.50203L15.0003 6.35832C15.3077 6.66566 15.3077 7.16582 15.0003 7.47324C14.6702 7.80335 14.6781 8.22394 14.7955 8.50746C14.9129 8.79097 15.2048 9.09394 15.6717 9.09394C16.1063 9.09394 16.46 9.44761 16.46 9.8823V11.0932C16.46 11.5278 16.1063 11.8815 15.6717 11.8815C15.2047 11.8816 14.9129 12.1845 14.7955 12.468ZM15.6716 11.1003C15.6756 11.1003 15.6787 11.0971 15.6787 11.0932V9.88234C15.6787 9.87839 15.6756 9.87523 15.6716 9.87523C14.959 9.87523 14.3467 9.4657 14.0737 8.80648C13.8006 8.14726 13.944 7.42472 14.4479 6.92085C14.4506 6.91808 14.4506 6.91355 14.4479 6.91082L13.5916 6.05453C13.5889 6.05179 13.5843 6.05175 13.5815 6.05453C13.0777 6.55835 12.3552 6.70179 11.6959 6.42871C11.0367 6.15566 10.6272 5.54335 10.6272 4.83078C10.6272 4.82687 10.624 4.82367 10.6201 4.82367H9.40919C9.40525 4.82367 9.40208 4.82687 9.40208 4.83078C9.40208 5.54335 8.99259 6.15562 8.33337 6.42871C7.67415 6.70167 6.95157 6.55839 6.44771 6.05453C6.44532 6.0521 6.44005 6.05218 6.43767 6.05453L5.58142 6.91078C5.57864 6.91355 5.57864 6.91808 5.58142 6.92085C6.08525 7.42468 6.22864 8.14722 5.9556 8.80644C5.68251 9.46566 5.07025 9.87519 4.35771 9.87519C4.35376 9.87519 4.3506 9.87839 4.3506 9.8823V11.0932C4.3506 11.0971 4.35376 11.1003 4.35771 11.1003C5.07025 11.1003 5.68251 11.5098 5.95556 12.169C6.22864 12.8283 6.08525 13.5508 5.58142 14.0547C5.57864 14.0575 5.57864 14.0619 5.58142 14.0647L6.43767 14.921C6.44005 14.9234 6.44536 14.9234 6.44767 14.921C6.78306 14.5857 7.21497 14.4097 7.66048 14.4097C7.88497 14.4097 8.11294 14.4544 8.33376 14.5459C8.99275 14.8188 9.40212 15.4314 9.40212 16.1447C9.40212 16.1486 9.40528 16.1518 9.40923 16.1518H10.6201C10.6241 16.1518 10.6272 16.1486 10.6272 16.1447C10.6272 15.4321 11.0367 14.8198 11.696 14.5468C12.3551 14.2738 13.0776 14.4171 13.5816 14.921C13.5843 14.9237 13.5889 14.9237 13.5917 14.921L14.4479 14.0648C14.4507 14.062 14.4507 14.0575 14.4479 14.0547C13.9441 13.5509 13.8007 12.8283 14.0737 12.1691C14.3468 11.5098 14.959 11.1003 15.6716 11.1003Z" fill="black"/>
</g>
<defs>
<clipPath id="clip0_4511_62181">
<rect width="20" height="20" fill="white" transform="translate(0 0.5)"/>
</clipPath>
</defs>
</svg>
