<svg width="33" height="32" viewBox="0 0 33 32" fill="none" xmlns="http://www.w3.org/2000/svg">
<path d="M29.5741 13.3885H28.5001V13.3332H16.5001V18.6665H24.0354C22.9361 21.7712 19.9821 23.9998 16.5001 23.9998C12.0821 23.9998 8.50008 20.4178 8.50008 15.9998C8.50008 11.5818 12.0821 7.99984 16.5001 7.99984C18.5394 7.99984 20.3947 8.76917 21.8074 10.0258L25.5787 6.2545C23.1974 4.03517 20.0121 2.6665 16.5001 2.6665C9.13675 2.6665 3.16675 8.6365 3.16675 15.9998C3.16675 23.3632 9.13675 29.3332 16.5001 29.3332C23.8634 29.3332 29.8334 23.3632 29.8334 15.9998C29.8334 15.1058 29.7414 14.2332 29.5741 13.3885Z" fill="#FFC107"/>
<path d="M4.7041 9.79384L9.08477 13.0065C10.2701 10.0718 13.1408 7.99984 16.5001 7.99984C18.5394 7.99984 20.3948 8.76917 21.8074 10.0258L25.5788 6.2545C23.1974 4.03517 20.0121 2.6665 16.5001 2.6665C11.3788 2.6665 6.93743 5.55784 4.7041 9.79384Z" fill="#FF3D00"/>
<path d="M16.4999 29.3333C19.9439 29.3333 23.0732 28.0153 25.4392 25.872L21.3125 22.38C19.9289 23.4322 18.2382 24.0013 16.4999 24C13.0319 24 10.0872 21.7886 8.97788 18.7026L4.62988 22.0526C6.83655 26.3706 11.3179 29.3333 16.4999 29.3333Z" fill="#4CAF50"/>
<path d="M29.574 13.3888H28.5V13.3335H16.5V18.6668H24.0353C23.5095 20.1444 22.5622 21.4356 21.3107 22.3808L21.3127 22.3795L25.4393 25.8715C25.1473 26.1368 29.8333 22.6668 29.8333 16.0002C29.8333 15.1062 29.7413 14.2335 29.574 13.3888Z" fill="#1976D2"/>
</svg>
