<svg width="32" height="32" viewBox="0 0 32 32" fill="none" xmlns="http://www.w3.org/2000/svg">
<g clip-path="url(#clip0_411_45807)">
<path fill-rule="evenodd" clip-rule="evenodd" d="M16 0.378906L15.7696 0.778906L13.5382 4.63875H15.2V18.3923L3.28864 25.2691L2.4576 23.8298L0 28.0919H0.46112L4.92 28.0944L4.08864 26.6551L16 19.7783L27.9114 26.6551L27.08 28.0944L32 28.0919L31.7696 27.6919L29.5424 23.8298L28.7114 25.2695L16.8 18.3927V4.63843H18.4618L16 0.378906Z" fill="#3C3C3C"/>
<path fill-rule="evenodd" clip-rule="evenodd" d="M15.6987 9.10554L6.33994 15.2428C6.12426 15.3987 6.06634 15.5759 6.0625 15.7372V24.9084C6.0625 25.11 6.16746 25.2975 6.33994 25.4028L15.6987 31.5398C15.9243 31.663 16.1537 31.6422 16.306 31.5366L25.6603 25.4028C25.745 25.3511 25.815 25.2785 25.8636 25.1919C25.9122 25.1053 25.9377 25.0077 25.9377 24.9084V15.7372C25.9358 15.4927 25.8321 15.3638 25.6513 15.2367L16.3015 9.10554C16.0788 8.9785 15.9041 9.03898 15.6987 9.10554ZM16.0001 10.2767L24.1649 15.6867L15.995 21.1926L7.7537 15.7369L16.0001 10.2767ZM7.2193 16.7673L15.4215 22.1996V30.0156L7.21994 24.5833L7.2193 16.7673ZM24.7809 16.7673V24.583L16.5787 30.0153V22.199L24.7809 16.7673Z" fill="#3C3C3C"/>
</g>
<defs>
<clipPath id="clip0_411_45807">
<rect width="32" height="32" fill="white"/>
</clipPath>
</defs>
</svg>
