<svg width="20" height="21" viewBox="0 0 20 21" fill="none" xmlns="http://www.w3.org/2000/svg">
<g id="uit:signout">
<path id="Vector" d="M3.33325 10.5C3.33325 10.6105 3.37715 10.7165 3.45529 10.7946C3.53343 10.8728 3.63941 10.9167 3.74992 10.9167H11.0774L8.87158 13.1217C8.83285 13.1604 8.8021 13.2063 8.78112 13.2569C8.76013 13.3074 8.74931 13.3616 8.74927 13.4164C8.74919 13.5269 8.79304 13.633 8.87117 13.7113C8.9493 13.7895 9.05531 13.8335 9.16587 13.8336C9.27644 13.8336 9.38251 13.7898 9.46075 13.7117L12.3774 10.795C12.4555 10.7169 12.4994 10.6109 12.4994 10.5004C12.4994 10.3899 12.4555 10.284 12.3774 10.2058L9.46075 7.28917C9.38217 7.21327 9.27692 7.17128 9.16767 7.17222C9.05842 7.17317 8.95391 7.21699 8.87666 7.29425C8.79941 7.3715 8.75559 7.47601 8.75464 7.58525C8.75369 7.6945 8.79569 7.79975 8.87158 7.87834L11.0774 10.0833H3.74992C3.63941 10.0833 3.53343 10.1272 3.45529 10.2054C3.37715 10.2835 3.33325 10.3895 3.33325 10.5ZM14.5833 2.16667H5.41659C4.86419 2.16711 4.33454 2.38675 3.94393 2.77735C3.55333 3.16796 3.33369 3.69761 3.33325 4.25001V7.58334C3.33325 7.69385 3.37715 7.79983 3.45529 7.87797C3.53343 7.95611 3.63941 8 3.74992 8C3.86043 8 3.96641 7.95611 4.04455 7.87797C4.12269 7.79983 4.16659 7.69385 4.16659 7.58334V4.25001C4.16659 3.91848 4.29828 3.60054 4.5327 3.36612C4.76712 3.1317 5.08506 3.00001 5.41659 3.00001H14.5833C14.9148 3.00001 15.2327 3.1317 15.4671 3.36612C15.7016 3.60054 15.8333 3.91848 15.8333 4.25001V16.75C15.8333 17.0815 15.7016 17.3995 15.4671 17.6339C15.2327 17.8683 14.9148 18 14.5833 18H5.41659C5.08506 18 4.76712 17.8683 4.5327 17.6339C4.29828 17.3995 4.16659 17.0815 4.16659 16.75V13.4167C4.16659 13.3062 4.12269 13.2002 4.04455 13.122C3.96641 13.0439 3.86043 13 3.74992 13C3.63941 13 3.53343 13.0439 3.45529 13.122C3.37715 13.2002 3.33325 13.3062 3.33325 13.4167V16.75C3.33369 17.3024 3.55333 17.8321 3.94393 18.2227C4.33454 18.6133 4.86419 18.8329 5.41659 18.8333H14.5833C15.1357 18.8329 15.6653 18.6133 16.0559 18.2227C16.4465 17.8321 16.6661 17.3024 16.6666 16.75V4.25001C16.6661 3.69761 16.4465 3.16796 16.0559 2.77735C15.6653 2.38675 15.1357 2.16711 14.5833 2.16667Z" fill="#3C3C3C"/>
</g>
</svg>
