<svg width="18" height="20" viewBox="0 0 18 20" fill="none" xmlns="http://www.w3.org/2000/svg">
<path d="M5.97803 6.12109H11.3116" stroke="#3C3C3C" stroke-width="1.2" stroke-miterlimit="10" stroke-linecap="round" stroke-linejoin="round"/>
<path d="M5.97803 8.68164H11.3116" stroke="#3C3C3C" stroke-width="1.2" stroke-miterlimit="10" stroke-linecap="round" stroke-linejoin="round"/>
<path d="M5.97803 16.3633H8.46703" stroke="#3C3C3C" stroke-width="1.2" stroke-miterlimit="10" stroke-linecap="round" stroke-linejoin="round"/>
<path d="M10.9575 1.00078L13.8021 3.98828H10.9575V1.00078Z" stroke="#3C3C3C" stroke-width="1.2" stroke-miterlimit="10" stroke-linecap="round" stroke-linejoin="round"/>
<path d="M5.97803 3.56055H8.8226" stroke="#3C3C3C" stroke-width="1.2" stroke-miterlimit="10" stroke-linecap="round" stroke-linejoin="round"/>
<path d="M3.1333 3.56055H3.84445" stroke="#3C3C3C" stroke-width="1.2" stroke-miterlimit="10" stroke-linecap="round" stroke-linejoin="round"/>
<path d="M3.1333 6.12109H3.84445" stroke="#3C3C3C" stroke-width="1.2" stroke-miterlimit="10" stroke-linecap="round" stroke-linejoin="round"/>
<path d="M3.1333 8.68164H3.84445" stroke="#3C3C3C" stroke-width="1.2" stroke-miterlimit="10" stroke-linecap="round" stroke-linejoin="round"/>
<path d="M3.1333 11.2422H3.84445" stroke="#3C3C3C" stroke-width="1.2" stroke-miterlimit="10" stroke-linecap="round" stroke-linejoin="round"/>
<path d="M3.1333 13.8027H3.84445" stroke="#3C3C3C" stroke-width="1.2" stroke-miterlimit="10" stroke-linecap="round" stroke-linejoin="round"/>
<path d="M3.1333 16.3633H3.84445" stroke="#3C3C3C" stroke-width="1.2" stroke-miterlimit="10" stroke-linecap="round" stroke-linejoin="round"/>
<path d="M10.6001 13.3227C10.6001 11.4665 12.0328 9.96172 13.8002 9.96172C15.5677 9.96172 17.0004 11.4665 17.0004 13.3227C17.0004 15.1789 15.5677 16.6836 13.8002 16.6836C12.0328 16.6836 10.6001 15.1789 10.6001 13.3227Z" stroke="#3C3C3C" stroke-width="1.2" stroke-miterlimit="10" stroke-linecap="round" stroke-linejoin="round"/>
<path d="M11.2873 11.2422H5.97803" stroke="#3C3C3C" stroke-width="1.2" stroke-miterlimit="10" stroke-linecap="round" stroke-linejoin="round"/>
<path d="M5.97803 13.8047H10.6331" stroke="#3C3C3C" stroke-width="1.2" stroke-miterlimit="10" stroke-linecap="round" stroke-linejoin="round"/>
<path d="M13.8006 9.96282V3.98783L10.956 1.00033H1V19H13.8006V16.6847" stroke="#3C3C3C" stroke-width="1.2" stroke-miterlimit="10" stroke-linecap="round" stroke-linejoin="round"/>
<path d="M12.6689 13.325L13.4232 14.1172L14.9318 12.5328" stroke="#3C3C3C" stroke-width="1.2" stroke-miterlimit="10" stroke-linecap="round" stroke-linejoin="round"/>
</svg>
