<svg width="20" height="20" viewBox="0 0 20 20" fill="none" xmlns="http://www.w3.org/2000/svg">
<path d="M6.97803 6.12109H12.3116" stroke="#646464" stroke-width="1.2" stroke-miterlimit="10" stroke-linecap="round" stroke-linejoin="round"/>
<path d="M6.97803 8.68164H12.3116" stroke="#646464" stroke-width="1.2" stroke-miterlimit="10" stroke-linecap="round" stroke-linejoin="round"/>
<path d="M6.97803 16.3633H9.46703" stroke="#646464" stroke-width="1.2" stroke-miterlimit="10" stroke-linecap="round" stroke-linejoin="round"/>
<path d="M11.9575 1.00078L14.8021 3.98828H11.9575V1.00078Z" stroke="#646464" stroke-width="1.2" stroke-miterlimit="10" stroke-linecap="round" stroke-linejoin="round"/>
<path d="M6.97803 3.56055H9.8226" stroke="#646464" stroke-width="1.2" stroke-miterlimit="10" stroke-linecap="round" stroke-linejoin="round"/>
<path d="M4.1333 3.56055H4.84445" stroke="#646464" stroke-width="1.2" stroke-miterlimit="10" stroke-linecap="round" stroke-linejoin="round"/>
<path d="M4.1333 6.12109H4.84445" stroke="#646464" stroke-width="1.2" stroke-miterlimit="10" stroke-linecap="round" stroke-linejoin="round"/>
<path d="M4.1333 8.68164H4.84445" stroke="#646464" stroke-width="1.2" stroke-miterlimit="10" stroke-linecap="round" stroke-linejoin="round"/>
<path d="M4.1333 11.2422H4.84445" stroke="#646464" stroke-width="1.2" stroke-miterlimit="10" stroke-linecap="round" stroke-linejoin="round"/>
<path d="M4.1333 13.8027H4.84445" stroke="#646464" stroke-width="1.2" stroke-miterlimit="10" stroke-linecap="round" stroke-linejoin="round"/>
<path d="M4.1333 16.3633H4.84445" stroke="#646464" stroke-width="1.2" stroke-miterlimit="10" stroke-linecap="round" stroke-linejoin="round"/>
<path d="M11.6001 13.3227C11.6001 11.4665 13.0328 9.96172 14.8002 9.96172C16.5677 9.96172 18.0004 11.4665 18.0004 13.3227C18.0004 15.1789 16.5677 16.6836 14.8002 16.6836C13.0328 16.6836 11.6001 15.1789 11.6001 13.3227Z" stroke="#646464" stroke-width="1.2" stroke-miterlimit="10" stroke-linecap="round" stroke-linejoin="round"/>
<path d="M12.2873 11.2422H6.97803" stroke="#646464" stroke-width="1.2" stroke-miterlimit="10" stroke-linecap="round" stroke-linejoin="round"/>
<path d="M6.97803 13.8047H11.6331" stroke="#646464" stroke-width="1.2" stroke-miterlimit="10" stroke-linecap="round" stroke-linejoin="round"/>
<path d="M14.8006 9.96282V3.98783L11.956 1.00033H2V19H14.8006V16.6847" stroke="#646464" stroke-width="1.2" stroke-miterlimit="10" stroke-linecap="round" stroke-linejoin="round"/>
<path d="M13.6689 13.325L14.4232 14.1172L15.9318 12.5328" stroke="#646464" stroke-width="1.2" stroke-miterlimit="10" stroke-linecap="round" stroke-linejoin="round"/>
</svg>
