<svg width="18" height="19" viewBox="0 0 18 19" fill="none" xmlns="http://www.w3.org/2000/svg">
<path d="M17.924 17.883C17.9997 17.7002 18.0195 17.4991 17.9809 17.3051C17.9423 17.1111 17.847 16.9328 17.707 16.793L16 15.086V9.5C15.9981 7.81815 15.3906 6.19324 14.2889 4.92253C13.1871 3.65181 11.6646 2.82026 10 2.58V1.5C10 1.23478 9.89467 0.98043 9.70714 0.792893C9.5196 0.605357 9.26525 0.5 9.00003 0.5C8.73481 0.5 8.48046 0.605357 8.29292 0.792893C8.10539 0.98043 8.00003 1.23478 8.00003 1.5V2.58C6.33543 2.82026 4.81298 3.65181 3.71121 4.92253C2.60944 6.19324 2.002 7.81815 2.00003 9.5V15.086L0.293031 16.793C0.153222 16.9329 0.0580152 17.111 0.0194476 17.305C-0.0191199 17.4989 0.000683092 17.7 0.0763531 17.8827C0.152023 18.0654 0.280163 18.2215 0.444573 18.3314C0.608982 18.4413 0.802281 18.5 1.00003 18.5H17C17.1978 18.5 17.3911 18.4415 17.5556 18.3316C17.7201 18.2218 17.8483 18.0657 17.924 17.883ZM3.41403 16.5L3.70703 16.207C3.89458 16.0195 3.99997 15.7652 4.00003 15.5V9.5C4.00003 8.17392 4.52682 6.90215 5.4645 5.96447C6.40218 5.02678 7.67395 4.5 9.00003 4.5C10.3261 4.5 11.5979 5.02678 12.5356 5.96447C13.4732 6.90215 14 8.17392 14 9.5V15.5C14.0001 15.7652 14.1055 16.0195 14.293 16.207L14.586 16.5H3.41403Z" fill="#0465B6"/>
</svg>
