<svg width="14" height="14" viewBox="0 0 14 14" fill="none" xmlns="http://www.w3.org/2000/svg">
<path d="M1.4478 12.1579H2.46126L8.70488 5.91426L7.69142 4.9008L1.4478 11.1444V12.1579ZM11.7995 4.8646L8.72298 1.82423L9.73644 0.810773C10.0139 0.533279 10.3549 0.394531 10.7593 0.394531C11.1637 0.394531 11.5044 0.533279 11.7814 0.810773L12.7949 1.82423C13.0724 2.10173 13.2172 2.43665 13.2292 2.829C13.2413 3.22135 13.1086 3.55604 12.8311 3.83305L11.7995 4.8646ZM10.7499 5.93235L3.07657 13.6057H0V10.5291L7.67332 2.85579L10.7499 5.93235ZM8.19815 5.40753L7.69142 4.9008L8.70488 5.91426L8.19815 5.40753Z" fill="#3C3C3C"/>
</svg>
