<svg width="17" height="16" viewBox="0 0 17 16" fill="none" xmlns="http://www.w3.org/2000/svg">
<rect x="16" y="15.5" width="15" height="15" rx="2" transform="rotate(-180 16 15.5)" stroke="#BABABA"/>
<path fill-rule="evenodd" clip-rule="evenodd" d="M7.74509 5.74509C7.85326 5.63695 7.99996 5.5762 8.15291 5.5762C8.30587 5.5762 8.45256 5.63695 8.56074 5.74509L11.8239 9.00825C11.879 9.06146 11.9229 9.12511 11.9532 9.19549C11.9834 9.26587 11.9993 9.34156 12 9.41815C12.0006 9.49474 11.986 9.5707 11.957 9.64159C11.928 9.71248 11.8852 9.77689 11.831 9.83105C11.7769 9.88521 11.7125 9.92804 11.6416 9.95705C11.5707 9.98605 11.4947 10.0006 11.4182 9.99998C11.3416 9.99931 11.2659 9.9834 11.1955 9.95317C11.1251 9.92294 11.0615 9.87899 11.0083 9.8239L8.15291 6.96856L5.29757 9.8239C5.18878 9.92897 5.04307 9.98712 4.89182 9.9858C4.74058 9.98449 4.5959 9.92382 4.48895 9.81687C4.382 9.70992 4.32134 9.56524 4.32002 9.414C4.31871 9.26275 4.37685 9.11704 4.48192 9.00825L7.74509 5.74509Z" fill="#3C3C3C"/>
</svg>
