<svg width="17" height="16" viewBox="0 0 17 16" fill="none" xmlns="http://www.w3.org/2000/svg">
<rect x="1" y="0.5" width="15" height="15" rx="2" stroke="#BABABA"/>
<path fill-rule="evenodd" clip-rule="evenodd" d="M9.25491 10.2549C9.14674 10.3631 9.00004 10.4238 8.84709 10.4238C8.69413 10.4238 8.54744 10.3631 8.43927 10.2549L5.1761 6.99175C5.12101 6.93854 5.07706 6.87489 5.04683 6.80451C5.0166 6.73413 5.00069 6.65844 5.00002 6.58185C4.99936 6.50526 5.01395 6.4293 5.04296 6.35841C5.07196 6.28752 5.11479 6.22311 5.16895 6.16895C5.22311 6.11479 5.28752 6.07196 5.35841 6.04295C5.4293 6.01395 5.50526 5.99936 5.58185 6.00002C5.65844 6.00069 5.73413 6.0166 5.80451 6.04683C5.87489 6.07706 5.93854 6.12101 5.99175 6.1761L8.84709 9.03144L11.7024 6.1761C11.8112 6.07103 11.9569 6.01288 12.1082 6.0142C12.2594 6.01551 12.4041 6.07618 12.511 6.18313C12.618 6.29008 12.6787 6.43476 12.68 6.586C12.6813 6.73725 12.6232 6.88296 12.5181 6.99175L9.25491 10.2549Z" fill="#3C3C3C"/>
</svg>
